<mxfile host="app.diagrams.net" agent="Mozilla/5.0 (Windows NT 10.0; Win64; x64; rv:131.0) Gecko/20100101 Firefox/131.0" version="26.1.1">
  <diagram name="Page-1" id="jTHwXBY5pCKAnm2Xk0Bb">
    <mxGraphModel dx="26467" dy="21000" grid="1" gridSize="10" guides="1" tooltips="1" connect="1" arrows="1" fold="1" page="1" pageScale="1" pageWidth="1600" pageHeight="1200" math="0" shadow="0">
      <root>
        <mxCell id="0" />
        <mxCell id="1" parent="0" />
        <mxCell id="dmp5WC2TkHpJQWJekFcE-2" value="" style="edgeStyle=orthogonalEdgeStyle;rounded=0;orthogonalLoop=1;jettySize=auto;html=1;fontFamily=Times New Roman;fontSize=20;fontColor=default;fontStyle=1;entryX=0;entryY=0.5;entryDx=0;entryDy=0;strokeWidth=20;" edge="1" parent="1" source="dmp5WC2TkHpJQWJekFcE-3" target="dmp5WC2TkHpJQWJekFcE-5">
          <mxGeometry relative="1" as="geometry">
            <mxPoint x="3696.5" y="-6318" as="targetPoint" />
          </mxGeometry>
        </mxCell>
        <mxCell id="dmp5WC2TkHpJQWJekFcE-3" value="" style="shape=image;imageAspect=0;aspect=fixed;verticalLabelPosition=bottom;verticalAlign=top;image=data:image/jpeg,/9j/4AAQSkZJRgABAQAAAQABAAD/2wCEAAkGBxMTEhUTExIVFRUXFxYVGBcYGBcXGRUYFxUXFhcXFxcYHSggGBolHRUVITEhJSkrLi4uFx8zODMtNygtLisBCgoKDg0OGBAQGi0lHx0tLS0tLS0uLy0tLS0tKy0tLS0tLS0tLS0tLSstLS0rLS0rLS0tLS0tLS0tLS0tLSstLf/AABEIAKsBJwMBIgACEQEDEQH/xAAbAAABBQEBAAAAAAAAAAAAAAABAAIDBAUGB//EAEIQAAEDAQUCCgcHAwQDAQAAAAEAAhEDBAUhMUESUQYTImFxgZGhsdEyQlKSwdLwFBYjU2Jy4RUzgkNUovFjk8Ik/8QAGAEBAQEBAQAAAAAAAAAAAAAAAAEDAgT/xAAyEQACAgEDAwEGBQMFAAAAAAAAAQIRAxIhMRNBUWEyUoGRofBCscHh8QRy0RQiM2Jx/9oADAMBAAIRAxEAPwDg/vOxwMUowaMhprnr8EaHCWnLiaROAMejlug6rlWFDJZLbYrk27Z1w4W0f9t3nzVM8ImknkuHNhh3rnCkuiWdF94G7nd3mtF1pxa1jhUc7GGSY6TgOuYXI0TBmSI3GDuXXXXVFOk1rBiRyjhJPSFy2zqO/JZrU3tzc3ok+SiY95yUFuqOYWkja2iRiYyxVm77yl7WmmBJidqYw3QpqdHelFq6LE+0EtbUY149R5cHEbxAII6FqP4KWgZvpe875VWtNia/EclwxDhgQd4IyK0rt4TPpRTtjS9mQrAS4fvaM+kY8xVjNPkkoNcFdvBO0nJ9L3nfKnfdC0+3S953yrubG6m5odTcHNOILTIPWpXNWlIzOA+6Np9ul7zvlR+6Fp9ul7zvlXdwmPShZw33RtPt0ved8qDuCdpHr0ved8q7ikSm2hxCULOGbwWtJ9an2u+VJ/Be0ATt0/ed8q7enKjtVGdVaQOCfc1YesztPkk25a59Zna7yXWvshCkpWc5xirpRLZzDeC9o9ul7zvlRHBa0e3S953yrorUHb1Sp2hwdmU0izK+61p9ul7zvlRbwVtB9el7zvlXSC0khRurOGqmktnLVrirNmX08Od3yqr9gq729p8lr2u0Evd0ptGoBif+l30znUZjrtqgSS3tPkjZbrrPyczrJ8lfrgvJMmM+hSWQVBDWzJxxGHSnTVE1MqO4P1/bp9rvlUFoumsyJLTOQBJJ7lr3lfVOzth75fuGJJ5h8TAXM1LTarWTsA0qZzM4kc7sz0DBeeU0uP2PRDE5c/uMtdU0wTtNds4O2TMHdOUqaxUatQbQbsg5bWE9AWnY7no2anNV4aJmX5k/pZ1aqjbeFuOxZaZJ/McJP+I0WCyzltFX6nqeDHHeT+BNabtqU2bdSpTYP1OIJ6o8VgvvgTAl3OBn24qdlzWiu7brvI/diepui6K7+DjKQnZA/VUPgPIK9ZR9p2/Q5/0+rhUvUxKXGubtBjo58FHUr1Bmw9rfNdFbLysjAQ6vtHc2P5PcsC0XvZScA/tPyos03+Er/p8ceZEBtj/Yd3eaSd9vsx1eOz4hJddSXg46MPJxwTnlMRJWp5BQiEEVSBC724rIOKYSMYGoPguCaSMl3nB+0sFJrS9gcTltCSZhZz4NMfJZvS7zVDIIGyZx1whVbNdLmua6WYOBOc4dS20YWdm9Daeqc+mCIIlHAJNcN4XIKLX1bJNWg/k5upnFjurQ84xXccGr8Za6IqMwcOS9hzY7UHm1B1C4+8h+E/8AaVzly3o+yVhWpiR6NRn5jN37hmD5r0Ym2jHIqZ7K+VHBRu23069NtWm4OY4SD8CNCMiFO4rUzG0zKLmjcglJQEFWoNE0jBTcVimWinuQApQpiAst4cHLUpAQqCB1nac8VDVsbCcGq5xQVapSqF8itssw5IYCeflEnwUAynYQNEaljHNCne+o31Q8fpMO904Ht6lVq21p3nLCDOM4dyWDHvCxAVGHZkax4lMq3eC4k5bk29r+ZREvgHQTtOJ3bLfNc9aL7tjqYcKQpzvJkjSBhHWo8yR1HC5HWWWwiIyC06FiAXmlK/LaATMHdOfipBwqtww8vJc9VP7R30JL7f8Ag1bzumyMqOr1AKYJJ/Ec5xcScwwnsGSy7RwncTsWOkZ/McJP+LcmqZnBk1HGtaHudOMudDfeMdgT6192OzjZpjjXbmDZZ1uzK8VqT95/Q99OKr2V9StRuSrXaBXc5ziS4xi7TDcBgtH7PZbIOW9jOYcp5Wdarxtdopt4ocUHZtbyQBJAl0ScAorDwT2nS9znuOgk9pU/ulXoi7/gjfqx1s4YxhZqMfrfier6CzDZLXauVUc6D7RgR+3VdZTuujQEuNOkBvILvrrVO08J7JTwaH1j2D4eKsZJf8cSSj3yS+Rj1ODDWtxfj0YLMq3QJwf3fytq08NHn0LOxo34T4fFZr+E9UnEN7vJap5u5i+h2/UquuoaOSU/3ifqxvY35Ul3eVHNYX9s5goLqr14NzyqOB9knA/tJ+JXOVLM9roLS07iMerf1LtSTPI4tEMIkIhpmMukqzYbC+q8MbgSczgBzrogyzskOMgQJxMTiDgNTgtmzD0TERB03g5rYs3BxjRDodI2TOYOpYdOzrVgXGwYbT46R5LJyRrGDRrNzIT4TG5pznACSYCyNSrfLZoVf2HuxXMWOkA9hAiHs3+0F0tptLXNc0h2y4FpIGMERMfR5lSs11MMFtUkAjQaGYO44LqMlQlFmtaxNOoP0u8CuKo1ZLgfVPcf+l3FUS13OD4Lgn0z+KYwLcOfArXF3MsnY9Y4HCnSszC0bJeAXY4F+RIGQJjTNbhtrZjWJjWN8Lhbst4bZKDNhlQGkS4OMbBDzsEzgW8k5Y4Bc5Svx1Jz3hzyXbPK0cJBLQ44gAckQtXJJmR68LTzJ5qysrg7ajaLOytEbW1h0OI68lrMolUCpvOoU2zKIbCW2gGfZgpOLSbUT5QFaqYUHGcytuEpcWEBVFZc/fZrGoW0iGgtBLszrIDdOk4dK6k0QuT4Ttpmo4VHkNgSwEnawz2G8p3Xgss7qOxtginPc5ypVoUahIa602kxliBhmXZDqnpQtta3OZJNNgOTGsGHS6DParH2qpJZZLMBpxtSMehoz65UN5XdbNkF9oqFx09Fo6AIXjVbXXx3/g90u9X8Nvz5MnjbXqW+634hBtotMjCnmPUZv6FJ9itX5r56SjRoWtrgeMcQCDBBIMHIjULS16HFO+/zRaNwWi0umvVe4T6IxgThgOS1Xm3dZLMJe+mw85D3noAwVK0We3VzD6+wz2W8kR0N81PZeBrBi8OdOrjsjvWbltvL4I7UXe0fix1v4S0qYbxVF1QuEtLjA5uSPis2rel4V8G/hs3NAaO9b1SnZaMbdWkwgQAOUYGGCp1+FFjZ6IqVT0bI+utSFfhjZ1k/7ToxW8GajsalSTzkuPaVtWHgwwRFNz41IJCo1eGNX/Rs7W6AkbR+utQutt41j6TmjoAHfK0ayvl0ZKWFcK/qbd4XHh/aYOktHxWE65xMhlPD9TfNUbwstqHpPqO6HE+Cz20qxJ9MYEySdNOldRhKvaOXkXufQ2nXLP8Apj3h8yCxIrf+TvSXeiXvHPUj7v0H3dflWnAPLbuOfUVpVq9O0VKZEjB0yILSAXD6CwbAcD0/Ba10tmoAM9moeym4rVxVWeVN3RjVLMIEOh2eJzWhcVMtrMJPrAdpj4rOtYx/x8CVpWJ+LDztPeF00crk7lxhURfdD8zud5K+4LiKAwici4djiF5oqz0N0do6vyQ5o2pAI6DrvXP2q86b8XVGnduHQFsXX/apftA7MFncE2wyq3dVPgB8FKOk6KLLTQ9tnRgpRaqTTtMrNa7eCMekHAjpSvywvaS7NpnHcuUDjszJnpK0WNPdM4eV8NHd2PhDTJ4uo5odGD2nkOnn9U8x7Vixos6yZv6fNTNP4rv2+S1hHSZSlZvU3sbZ4axpJa4PNTlBgBMGkBkY1O8rnHUnEEjFo1keBV2z24mkGEDFoJOp3jcqD3yAHaCBvMYDuhZvVdss9NLT8Tb4M3hUbUa8WhjC2WDjJcQwjahoOAbIAMQcV6yOEVmw/E/4u7sF4XY6paRs7JxmHAEYZZrpqd7U8znnA6ueNCq5SXAhGL5PU7PfNF7g1r+U7IQROE6jmWgGBeWXPwio06zHvJDWkzEmOS4ZDPEhdW3h7Y5jadETOw7OThHZjzruMm1uScUnsdNxIIjf3plShDTsktgHLLLdkudbw5sRJG0QBEEMcJznDq71hX9flCtV2qbjGyAJaRiNIjekpURRs9BNnGsmec/DJOhc23htZw0YVDGyDgBE64nmKVThvZII23A87YMDPXcrqQ0s6QFcrfzyKroYHHCJcGj0WzMAk56xzaqatw4sjACHFzSOTEYkelrhm1UKlu+0E1abthj9dpgOAaBBInQ6rDPJaDf+mi9ZnVrNbKk/iihT02G7JjneT8VkXnc9EAf/AKQXal1Zrj/CtW6xWUkm0WsPM5GoXRzBolULxbYIAY8D9rHiek6rCF9r+CPVOu9fFlP+mM0rt98KWxWDYqNc2q15aQQ0vEOI0MGVXNOyfmf8XKe7vs1Oq17XbRbJDTtieSdy0bdd/kcKrXHzZq17beDnQzi6Td7WgYdJlVn3FXqf3bS907if+lafflqJinZaYBxBIJkaHlZIG2Xk7J9On+0ALNalxSO3pfvMl+6we4Oc17oECAQI596t0OD1Nn+mxv7nNnxWVbLJa6riePc1ugJ8lWPBt7vTrudvxcfEqK2t5ncva2hZ0T6NBmLq1Fsdo7lE69bG3O0T0AeZWDT4KMkS7k95+EK7Q4O0BoT1qacfeTF5q2jQLffViOT6h7B/8rLdeNm31O75UbyuNgJ2SRzRKzxdIAPKMmMYyjrWsY462bMpPN3Re+32b2n93kks43V+v/j/ACiutOPyc6s3j6mYykaYk4gxEfytDg9ax9ppZ4lw7WOHxWda6+1AEwFNcFM/aaAIMcY0dpj4rW3p3PM1FS2H26m1r3BwmHEb4TWVQMmu5uSVa4VWfYtVQc4PaAVSs14vpAwSR7M4fwuoytI5cUmdoy+KWr4n9LvJQvq2afRb/wCs/KsyvxT2gVCMpEmCJ3blmbWy9rGVA8OMATiMJ+CzcKNFNdzr6Vup4AGAMgGuA8Fn3I7i31trAOftNO8S7+FRpyxrnPwgE9AAncrABkCHSZI5J0WVmyhHybptTHCCRBC4GvdFT1Wk80jzXRVWua0uLXAAE5aAFOISM3ErxRZg8Q+mSXCAYjLdjkp6RaTIxMd25PvYOLgA1xAGgOZ+gobFZqhLoY6SDGBGumC36j02efpx10SWOvQAG054IEZSI7CVc2bO9p2CScpiDnOoWK27quXFv7CtGxXdVYCXMdBjm8c1JJvdMsXFbNF+xWmztAw5TYkkHPZLT8Fbda2bcZgkOEREAt39CzrJdR2pdTqHmAy6iFr0aGzlQq4ZTsYYR1KOKRFJgtVVpbAABTrI9gDJA5AM4D1j34K25zh/oVMhqzUAp7bQ/wDId1mn8VO1fqV7uxottLcMdNkb9VWpvpte6pGJOzI1EYEDQ8lalmqzg6hHSQfB3wVzapkQWEdBnxXLaXYqTMK0XgXB52pGETGEh2GM6hUK9Qks2jIJqiCBAiRC6urZqDxDstzmtI8OdJt0UjkWHPQa4lRSijpps4q8nNhsNbgHmIETtNErYuS10hT9Ah0YhoGyZxEAnmW7UuRhzp0nZjEHUyVHSusNmKLRjoSMstUlJSjRca0ztmdVfTbgLJLs4LmAnMyTB3Ssu9bya4NL7PAjDltOGI9jDEFdTUs0naNIzlgTuj4qpXu6i4AOpPhogcp2Uk/ErjGkvaR3lm37H5I5FtqpE/2CdcCCYGfq7lo2eKT6ZFkqcY6CAdloLXg7JB3xv64W3Z7DZmODgx4IBA5RMTnqre1T2i7aqAnPGcjIiZgYZLtuPhnEXNdzGs181Xl54imGjKS8mSYbMO7Uxl62mo1nF0qAcQS6Q/DlFoiX8wWlRsFFocA93KIJkbjOgTrLYqVP0XmA3ZAIJjGc1lJLekb457LVJ+vzM6haLaHA1BRDB6UMExHPKq0L4tBdWBcyGtGyRTpjEuA9npXRVaLSCBUaJBHaFni4mDaLag2nkbRJEQHFwAA6VF3tHcpRtU/ujJrVLe1pcbRHQ1gxPQ1R2SvbqmH2p4ifWjQHQLpLddxe3ZDmjEH6hRXddT6cyW4g6TiRGq1hJad0r/8ADy54vX/sbo4y03racjXqnPN5KhN6V4P41TT1it5/BWsc3U+/yUZ4H1PzGd69GrF6Hm0ZDEN6V4H41T3ikto8EXjNzXcwwPaUVNeI6WPI/wCTF/ro9kd6msd+8tmHrN37wrIuZv5R7CnsuRrceKIjETOnSVjqh4JUjM4U2kPtNTFxcCAdqNAMuaVkPGB6Fp3hZnVbU85yASRiJjLk9Cmbweedf+LlqpJJFe7ZnV7TxgYYA2WtbhOMDPEplCsWPY8ZtcDvXS2Xg+Wta0tYYzcQceraCti46Yz4vqYfnU6iKosx7XwgfUY5hwa4FphoyPSoql61H1Kb4cdkObkRg6Nx5l0rboacgPdb4mSrdKwU2j0Wjqk96muPgaJeTmnXi+MaY/yB80WXo/czoAPmunqup0xytlo/VAnoaMT1BZda8GVDs0qHGu0JbA90YnrIVVP8JHGu5UZfD9GM7HHu2lI2/am5nQAfAFX6XB97uVXe2mPy2AA9gw7ZU9S6KOTQ5o3zifJW8a7FUZmYb6qesQ0a7IG11TIHWCp6XCFjfRokHVxdtPP+RGHQFO24qWu0ek+QUguWj7J7So5Y/BVGfkr/AHjb+W7tCB4Rt/LPaPJXG3TRHqDrJKlp3dS0pt7PNS8fgtT8lK18I+Ufw9B636RzKH7x/wDjHvfwugvGx0xUd+GzT1QNBzKEUmj1W9gU1Q8DTLyYn3jOlMe9/CkZfdR2VEno2j8FsgDcjKao+C6ZeTN/qdX/AGz/AK6kv6hX/wBsfe/haSUqal4LT8lFlutWlID/ADVujb7VqKY6y5OUnFgjBwnccD34HtXLa8Fr1IbRXtD4is2nHssmenaPgtGjbAMy49Y8gqL2kYEQmSo9ymyK7DqOxLiqZ0aeiFjSlxh3qUWzWdYmez3lROu9vOFQbaHDIqZt4O1+H13puNiR13DR3co3XcfaCkZeO8DvHhKe23NOhHYUtikU3WB/N2qM2Z40PatP7Qz2o6cPFPBnIymoUYxDx7Q7Uw2h49Y9q2ymOS0SjG+1v9rwSWo6k32R2BJXYbnLNs1d3pVtnmY0DvMlOF20vXLn/ucXdxMK2KZOadxYGats5pDKLWNwYyOoDwU4DjzJrX4w0SdwBKjtVqDP7lUM/SIc73Rl1lKbLsiYU4zKeHYSG4DUkADpJwWDaeEIGFKn/lUxPU0YdsqrTo2m1HHacOfBo6sgu1ifL2OHkXY2rXfNJmG2XnczLrecOyVnsvG0Vjs0GbP7RLut5y6oWpYeC1OmNqu6ebIeZWr9qDRs0mho6E1RXCsVJ8mPZODAHLtNSScdkGSek6rWpVG0xs0WBg3xiVXc8nE4lGVw5N8nailwPLiTikmgoyoUcimpIB0qSgJc0byPFRSp7F/cZ+4eKAmvT+67q8Aqkq3fBJquxJyz6NVTlAGUpQlKUAUkEJQDkEEEBMy0OAiZG4iR2FREoIFAFBCUigESgSgSgUAkJSQVIEO50uNPN9c4xTCgUBOy1uGru35pUv8AUDv7R8QfgqJTSpSLZpi38w6j80JLLlJNKFidxkbTnNY3e7kjvxVC0X1RZ6O1VPuM8yubq1n1DLnOcd5MrTu64KtTGNkbyt+nGO8mY62+Blqvys/AHYb7LOT2nMpXfctWqcGwN5XVWC4KNIS7lEanJXKt4AYMHXp2KPKltFFWNv2mUbBwbpUhtVDtHny/lX324AbNNoA3x4BUKlQuMkyhKybb5NEkuCV1QnEmSkmByIKhR4KMpgKMoB8pBNlFpQDpRBUZKdtIBwKv3NT2qzBlnn+0rPDloXJ/dGAMSYP1zoB19UtmrGuy3wVBXL5wqHGcAe3RUAUA9IFNJSJQBQKSAQDkkwpIBxQJTSkSgCSgSmpSgCSghKRQAlCUigVSCJTZRTUAiU0pJpQCKKYkqC7YbnpUhMAkalTVrwAwaJ59Fm1q7nHEz4IKO3yOOCWrVc7FxnwTQU1OIQBlOCrutLG5uA60x150vbCtMWi4E8FZ39Vo+33IG+aXtdyaX4JqXk05RBWV/XKXP2If12nz9iaJeBqXk1wUSsY3/T3OTfvCz2Sr05eBrj5NsJArDPCJvsHtQ+8X6O9OnLwTXE3lqcHqBfUcBhDD2SAuK+8R9gdqvXPwhqS7ZDWmBjv+oV6Uh1InQXs0ipypmB4lUwsa9OE1Rzxg3IDKNScutWbutpqZgdSjxtLcKafBoIympErg7DKRKaUgEA4FBBLaQCSQKEoApqUpSqBFAoJFQClNKKaqQBKUpOQQCKaUpQKAEpIFJUDJRBWC+/To0daq1L1qH1o6FosUjh5EdNUtDWiSYWPbr4Jwash9QnMkpq0jiS5M5ZG+B7nk5oSgktDMclCEooAyimykgHJJqcqBIgoSiEAZV663ES4GDgFnq5YsuvyQDbYeV1fFbNxFY9sMlvR8Vq3I7JZZeDTHyb5QcmlydC8p6A9CE4poO5LNAOlKU0lAmUASU0lHthAKkCgXIApEb0KJAoH6/wCkJQg6U1EppKARKYnIOCABKbKUoEoBEpIJKg4lFNRC9h5AogpQkgDKQQRQBBSKDUlQOSCEpzc0AkSkUoUAE5NOqcgErticA0GNSqJK0bC78Mj6zJVQI7xHKHRzR3K/dDohZ1uOLRoArt1aLPJwdw5OkaZRGOqYzLsS3dfgvIekc04IuCFTCPrVFhx+t6AYD8US76/hFzBhhomVR3ER3qgTTCcm1B8En4IQDvobkNvpSJwPT5JO15h5IAh2CU6KMpwGaAU4oJuqKAa8oEoFyDT9dSoCU0lI5/W9NJlAEmMkkwlJWiH/2Q==;strokeWidth=20;fontSize=200;fontStyle=1;fontFamily=Times New Roman;imageBorder=default;" vertex="1" parent="1">
          <mxGeometry x="1179" y="-6800" width="1665" height="963.09" as="geometry" />
        </mxCell>
        <mxCell id="dmp5WC2TkHpJQWJekFcE-4" value="" style="edgeStyle=orthogonalEdgeStyle;rounded=0;orthogonalLoop=1;jettySize=auto;html=1;fontFamily=Times New Roman;fontSize=200;fontColor=default;fontStyle=1;entryX=0.5;entryY=0;entryDx=0;entryDy=0;strokeWidth=20;" edge="1" parent="1" source="dmp5WC2TkHpJQWJekFcE-5" target="dmp5WC2TkHpJQWJekFcE-7">
          <mxGeometry relative="1" as="geometry">
            <mxPoint x="6953" y="-5583" as="targetPoint" />
          </mxGeometry>
        </mxCell>
        <mxCell id="dmp5WC2TkHpJQWJekFcE-5" value="&lt;div&gt;&lt;font&gt;&lt;br&gt;&lt;/font&gt;&lt;/div&gt;&lt;div&gt;&lt;font&gt;VAR&lt;/font&gt;&lt;/div&gt;&lt;div&gt;&lt;font&gt;AUTOENCODER&lt;/font&gt;&lt;/div&gt;&lt;div&gt;&lt;font&gt;&amp;nbsp;Feature Extraction&lt;/font&gt;&lt;/div&gt;&lt;div&gt;&lt;font&gt;&lt;br&gt;&lt;/font&gt;&lt;/div&gt;" style="whiteSpace=wrap;html=1;rounded=0;strokeWidth=20;fontFamily=Times New Roman;fontSize=200;fontStyle=1;fillColor=#fff2cc;strokeColor=#000000;" vertex="1" parent="1">
          <mxGeometry x="6648.5" y="-6759" width="1950" height="870" as="geometry" />
        </mxCell>
        <mxCell id="dmp5WC2TkHpJQWJekFcE-6" value="" style="edgeStyle=orthogonalEdgeStyle;rounded=0;orthogonalLoop=1;jettySize=auto;html=1;fontFamily=Times New Roman;fontSize=200;fontColor=default;fontStyle=1;entryX=0.5;entryY=0;entryDx=0;entryDy=0;strokeWidth=20;exitX=0.5;exitY=1;exitDx=0;exitDy=0;" edge="1" parent="1" source="dmp5WC2TkHpJQWJekFcE-7" target="dmp5WC2TkHpJQWJekFcE-9">
          <mxGeometry relative="1" as="geometry">
            <mxPoint x="7083" y="-5045" as="targetPoint" />
            <mxPoint x="7754" y="-4750" as="sourcePoint" />
          </mxGeometry>
        </mxCell>
        <mxCell id="dmp5WC2TkHpJQWJekFcE-7" value="OBSERVATION" style="rounded=0;whiteSpace=wrap;html=1;fontFamily=Times New Roman;fontSize=200;fontStyle=1;strokeWidth=20;fillColor=#e1d5e7;strokeColor=#000000;" vertex="1" parent="1">
          <mxGeometry x="6737" y="-5433" width="1773" height="429" as="geometry" />
        </mxCell>
        <mxCell id="dmp5WC2TkHpJQWJekFcE-8" value="" style="edgeStyle=orthogonalEdgeStyle;rounded=0;orthogonalLoop=1;jettySize=auto;html=1;fontFamily=Times New Roman;fontSize=200;fontColor=default;fontStyle=1;entryX=1;entryY=0.5;entryDx=0;entryDy=0;strokeWidth=20;" edge="1" parent="1" source="dmp5WC2TkHpJQWJekFcE-9" target="dmp5WC2TkHpJQWJekFcE-10">
          <mxGeometry relative="1" as="geometry">
            <mxPoint x="6394.5" y="-4068" as="targetPoint" />
          </mxGeometry>
        </mxCell>
        <mxCell id="dmp5WC2TkHpJQWJekFcE-9" value="&lt;div&gt;PPO &lt;br&gt;&lt;/div&gt;&lt;div&gt;Agent&lt;br&gt;&lt;/div&gt;" style="whiteSpace=wrap;html=1;fontSize=200;fontFamily=Times New Roman;rounded=0;fontStyle=1;strokeWidth=20;fillColor=#f8cecc;strokeColor=#000000;" vertex="1" parent="1">
          <mxGeometry x="6991" y="-4288" width="1262" height="650" as="geometry" />
        </mxCell>
        <mxCell id="dmp5WC2TkHpJQWJekFcE-10" value="&lt;div&gt;ACTION SPACE&lt;/div&gt;&lt;div&gt;GAUSIAN DISTRIBUTION&lt;br&gt;&lt;/div&gt;" style="rounded=0;whiteSpace=wrap;html=1;fontFamily=Times New Roman;fontSize=200;fontStyle=1;strokeWidth=20;fillColor=#e1d5e7;strokeColor=light-dark(#000000, #9577a3);" vertex="1" parent="1">
          <mxGeometry x="4340" y="-4380" width="1755" height="840" as="geometry" />
        </mxCell>
        <mxCell id="dmp5WC2TkHpJQWJekFcE-11" value="" style="edgeStyle=orthogonalEdgeStyle;rounded=0;orthogonalLoop=1;jettySize=auto;html=1;fontFamily=Times New Roman;fontSize=200;fontColor=default;fontStyle=1;entryX=0.5;entryY=1;entryDx=0;entryDy=0;strokeWidth=20;exitX=0.5;exitY=0;exitDx=0;exitDy=0;" edge="1" parent="1" source="dmp5WC2TkHpJQWJekFcE-14" target="dmp5WC2TkHpJQWJekFcE-3">
          <mxGeometry relative="1" as="geometry">
            <mxPoint x="2498" y="-4914" as="sourcePoint" />
            <mxPoint x="2493" y="-5724" as="targetPoint" />
          </mxGeometry>
        </mxCell>
        <mxCell id="dmp5WC2TkHpJQWJekFcE-12" value="" style="endArrow=classic;html=1;rounded=0;fontFamily=Times New Roman;fontSize=200;fontColor=default;fontStyle=1;exitX=0;exitY=0.5;exitDx=0;exitDy=0;strokeWidth=20;entryX=1;entryY=0.5;entryDx=0;entryDy=0;" edge="1" parent="1" source="dmp5WC2TkHpJQWJekFcE-10" target="dmp5WC2TkHpJQWJekFcE-13">
          <mxGeometry width="50" height="50" relative="1" as="geometry">
            <mxPoint x="3963" y="-4330.710000000001" as="sourcePoint" />
            <mxPoint x="3053" y="-4744" as="targetPoint" />
          </mxGeometry>
        </mxCell>
        <mxCell id="dmp5WC2TkHpJQWJekFcE-13" value="" style="rounded=1;whiteSpace=wrap;html=1;strokeWidth=20;fontFamily=Times New Roman;fontSize=200;fontStyle=1" vertex="1" parent="1">
          <mxGeometry x="890" y="-4425" width="2150" height="925" as="geometry" />
        </mxCell>
        <mxCell id="dmp5WC2TkHpJQWJekFcE-14" value="&lt;font&gt;&lt;span&gt;ENVIRONMENT &lt;br&gt;&lt;/span&gt;&lt;/font&gt;" style="rounded=0;whiteSpace=wrap;html=1;strokeWidth=20;fillColor=#dae8fc;strokeColor=#000000;fontSize=200;fontStyle=1;fontFamily=Times New Roman;" vertex="1" parent="1">
          <mxGeometry x="1080" y="-4330" width="1863" height="284" as="geometry" />
        </mxCell>
        <mxCell id="dmp5WC2TkHpJQWJekFcE-15" value="" style="shape=image;imageAspect=0;aspect=fixed;verticalLabelPosition=bottom;verticalAlign=top;image=data:image/jpeg,/9j/4AAQSkZJRgABAQAAAQABAAD/2wCEAAQEBAQEBAQEBAQGBgUGBggHBwcHCAwJCQkJCQwTDA4MDA4MExEUEA8QFBEeFxUVFx4iHRsdIiolJSo0MjRERFwBBAQEBAQEBAQEBAYGBQYGCAcHBwcIDAkJCQkJDBMMDgwMDgwTERQQDxAUER4XFRUXHiIdGx0iKiUlKjQyNEREXP/CABEIAWgCgAMBIgACEQEDEQH/xAAcAAEAAQUBAQAAAAAAAAAAAAAABwIEBQYIAwH/2gAIAQEAAAAA7tyIAAAAAAAAAAAALC/AAAAAAAAAAAAAAAAAAAAAAAAAAAAAAAAAAAAAAAAAAAAAAAAAAAAAAAAAAAAAAAAAAAAAAAAAAAAAAAAAAAAAAAAAAAAAAAAAAAAAAAAAAAAAAAAAAAAAAAAAAAAAAAAAAAAAAAAAAAAAAAAAAAAAAAPPXdaxGNXeW2PavYAAAAAAAAAAWsR4U03TMls2WuVeR2HE2L43/fvoAAAAAAAAPGFsas7bLVNxkO5+mIi6S40w6uXs9o8bstNFYAAAAAAAMXCtF7MUQ4jYpg9dZiWv7Uo8ZSi3oPSo88dyxmuJxyOOhK3lbcAAAAAAAPkL4LLTbXi+duhMyQymX6DnO+n3n/oFqMV07Rj8JvcmIt0aVd2AAAAABYx3qhbTflxz/P8A9KefugwESbJqWA6DDXoc+bZp+yzH9jCPugMgAAAAEeaKMrI+wgGnahMBTy/Ol97ZP3p+/Y52GIZMtZBB8iCJNzo2eZEB7JLAAAAAgCfwABHPLc4PHVsJY2dtj/B4+XREQTnzjvGZy2Uu/QiDtBgIR3+TtHjGbdYxFla3eR2TafUAAHKG6UZaWb8AGNi+YgAFtAU54zB4qwsPN5YjNUeyOLzp7nnwyexZ/Y8xbazqFl8+bpJf0ACBZ6WMSYb1nuoA+QLPcHWpuMlAHPsoxl6euySiAPnJfRXvdeGMwut2f1ReTDhonTpkAA5U3UMZR0YAOdeigACFZdvXx9ACB54ADxh/B/JejjBTfmgCBJ7AB8jjUcxJ2MjmaQAGNi+YgACAZ+AAefL+mdSaVbTiBpccT2AEK4GVdmsYy17X5/2oABAM/AAED4XOmZlmBFT57zpBWuzJdRphZS0+bgc+9BABBFeN9sn4Wnhho57ZvAAOfugQACA5E3g1+Bdpx1Zg9Q6hi2uS9scxZjoX6EAT+ANNiXPzboUde/jPEUwhletPUAEAT+AAQHPg5pyMs2ka++AnSN4b7H+x/qPjjPeT96CAp9AHO1r0PzdK0jqeYunedaLDpG9AHjCE6gAECT2Q9jNx0TcZNc/ZfYYzuuiw1XBSOEBT3UA+c+e2J6T+04/JW8IStx33JzjMe2AEZbJtIABAk9nP1Mo4CUaYvwE487Trw13x9hPDb/q0v5ALGAOjQEe65n4L3XB5TYbqYoBn7irqnbIaxc8fQOfugQABAk9nP1affvL85wL1NhI+jCWJUhyWYZjnrYDAwz6+8k7eIEkWy0LoCEJku+VpT1HoTnnMTctIJuKPW3q9aIqk678fZc5G7vbvK395cvsDTyQPRj76zzM4QROlcAk/YyCmK6VuADzjzSPqrSOrYVxfQflyBIe27lzN13AiewAB8+WVrYYy1sLTG21W5SMQP4bln9ugi11zL9Bwlb+s9NG5IwHUs1AABzzvtG3xhNjVo/kyO9TySqqv540UH2v2r81Cmuquvx8qPhX923U51536PGO4j63wETblXQsegbkAAIvyOM516EyGh3s78y9M/QAAAABRzjMES5bJYCynaAOmAAAAEPYGdsZj9rx3PE6bKAAAAADWoQn3KW13bc4TvsQAAAB5wvja6MhNv0AAAAAAhvC01+851gAAAAAAAAAAAAAAAAAAAAAAAAAAAAAAAAAAAAAAAAAAAAAAAAAAAAAAAAAAAAAAAAAAAAAAAAAAAAAAAAAAAAAAAAAAAAAAAAAAAAAAAAAAACwvwAAAAAAAAAAAAY7/xAAWAQEBAQAAAAAAAAAAAAAAAAAAAQL/2gAIAQIQAAAAoAAAAAAgAAAAAAAAAAAAAAAAAAAAAAAAAAAAAAAAAAAAAAAAAAAAAAAAAAAAAAAAAAAAAAAAAAAAAAAAAAAAAAAAAAAAAAAAAAAAAAAAAAAAAAAAAAAAAAAAAAAAAAAAAAAAAAAAAAAAAAAAAAANgAAAAAD/xAAWAQEBAQAAAAAAAAAAAAAAAAAAAQL/2gAIAQMQAAAAgAAAAAAUAAAAAAlAAAAAAJQAAAAACUAAAAAAlAAAAAAJQAAAAACUAAAAAAlAAAAAAJQAAAAACUAAAAAAlAAAAAAJQAAAAACUAAAAAAlAAAAAAJQAAAAACUAAAAAAlAAAAAAJQAAAAACUAAAAAAlAAAAAAJQAAAAADAAAAAAA/8QASBAAAAYBAgMEBgcFBgUDBQAAAQIDBAUGBwAIERVUEiE1cxATFjAxQRQXICIyQGAzQ1JWYRgjJkJQUSVEV1hxJ0diJDRFRlP/2gAIAQEAARIAZsmRmTQwtEhOKRRMPLI/o0tcsj+jS1yyP6NLXLI/o0tcsj+jS1yyP6NLXLI/o0tcsj+jS1yyP6NLXLI/o0tcsj+jS1yyP6NLXLI/o0tcsj+jS1yyP6NLXLI/o0tcsj+jS1yyP6NLXLI/o0tcsj+jS1yyP6NLXLI/o0tcsj+jS1yyP6NLXLI/o0tcsj+jS1yyP6NLXLI/o0tcsj+jS1yyP6NLXLI/o0tcsj+jS1yyP6NLXLI/o0tcsj+jS1yyP6NLXLI/o0tcsj+jS1yyP6NLXLI/o0tcsj+jS1yyP6NLXLI/o0tcsj+jS1yyP6NLXLI/o0tcsj+jS1yyP6NLXLI/o0tcsj+jS1yyP6NLXLI/o0tcsj+jS1yyP6NLXLI/o0tcsj+jS1yyP6NLXLI/o0tcsj+jS1yyP6NLXLI/o0tcsj+jS1yyP6NLXLI/o0tcsj+jS1yyP6NLXLI/o0tcsj+jS1yyP6NLXLI/o0tcsj+jS1yyP6NLXLI/o0tcsj+jS1yyP6NLXLI/o0tcsj+jS1yyP6NLT9izTZuzFapAcqRuAxnh7Pyi/o+T8PeeUbUZ4ez8ov6Pk/D3nlG1GeHs/KL+j5Pw955RtRnh7Pyi/o+T8PeeUbUZ4ez8ov6Pk/D3nlG1GeHs/KL+j5Pw955RtRnh7Pyi/o+T8PeeUbUZ4ez8ov6Pk/D3nlG1GeHs/KL+j5Pw955RtRnh7Pyi/o+T8PeeUbUZ4ez8ov6Pk/D3nlG1GeHs/KL+dXeNW33nLlJEoB8XWQKHGgKj+6QTcA05zrh1pwBXIsHw0fcfhFuXvv7E2j7o8Ih3BcDD/UN0uE/5rV0hubwguPALyiTTfcFhh0IFSyJEhqNyhjSSHhH36vrj/s0k416UhmUi0cgb4D/pEn4e88o2ozw9n5Rfy7+WiIdEV5aUaMUQDiZWW3D4eiFAbhbkpJ13gCBc6T0xx9isLW+UL/kXCY3MTQB9Bp9RriY/NShZ0fgClhzi0im/AQOSUouP2hhPfNx8+6H8J0l2WzWNUKrIzwzKxB02su1Rr4RjBxIf7CjknFrEAJD7fLGqT5aQzNEoBwZbe7mQugzq0S/Hgu9E/qvuIpLBss9nccXGMbJd51g3F4SUSA8i1esiH01yXtone7m9QET6RxzgS1FE7GsVF+B/m+20YXWMCqFTMyW+R/7O7FicBrOTL1DiT8JBx9naFETQObEZFIodyI2LcnAAPNaDWbKiQe84bhmkMPqr5ji31v8A3XreYcYWwE0a/dotZY3wQAQMAGKICA94D/oUn4e88o2ozw9n5Rfyb6Sjohsd3Jv2zRuT8S0tuLxgxcmYQz95ZZH5NAvmdbP2i0/E7aDbHAOy8HGOXrJxNd80u2SB/iyd4YwLTic4vK5HiwBxF2xzRimKEY3FVFfzy5DdgCjaNxlm8Ex9A1dsYfuLfVfmCcE57bnN41TH4tibacer8D2Z/ZLCv8xjsJ4iiDALDHkKAl+B2dbr0cAlYQUc1L/sAAAAABwAPsWivM7RWJ+uvwD1EmwXan1gCdVnsax0VOACkrW13EA/TlaVTJYqhJWpw7zthwMMrt0w3Jj68lNSj1+PEip8F2CBAxqJma1xX8DYXO5irCIqsatdGiektxMTDKEa5HpNkqCoCACtWblT7eiDisWSOlCCHEQEAEBAQ4gOrPirG1tA/P6ZFOlTfvj7fj18TL4zyTZayYofdajNbi6UPama1B3eOIIcV4XcTj988JE2U8hU5fo2rpq7QTdM3Ka6Kgdoin5+T8PeeUbUZ4ez8ov5CZn4GtszyVhmWUc0KHEVV9wsLJuFWGM6nO3N6AiX1vLNx1275KchKJHH/cR+3KhGcEk7m9mLhJAImFaLhYKvNQawsUxjWhC/gn89VdrJKV6lR7652Eg8BZlr+fr2AHsdoY0WKP8AFhAbesYQ64ScnELWGU7hO+bNmrJEjZm3SQQIHAiWrZeKjR2ISFtn2kY3Hj2A+vOyWfiGMcST80gIgBJAiW56aER9fSa0j8iBjjOr1QFJHPQtyj8SDhzI6nefcJZdEw9kgvejuEsv/lTGub2hwMwz+qoX5FXV3J03tP1/Z27x6X3lWuPsk17I0QrJwxlkXDZT1D+PrQ+xG4K4V4fuRt1jEp1n6L1kWr46jmz6xOVRVdq+pYsU8xZGeF+lR23+ynaCHEghuBNEiHthie6whPmvX814kuYAyj7hGGUUAQFnY8DYrsq4SScASMkBEVCSAUbOlI4HpWQ29nYJ/CMQz6NdVSY5cokzU1RECfToCxV60M05GvTbKSaG+CmpyBgrMzPH2CFZyLQwCApPMAMoJdWTxPcZemvRET/RvrEy9j0exkqihOxCfcM5SckUi/NwcVSwNnigftW/52T8PeeUbUZ4ez8ovvTnImQyihwKQoCYxrDnyhw748LBneWqe+BY0R3D37vE8XjuHU1Dbe6AyeFl7N9Pt8183rZm1ZIJtmbdJu3TDgRPU9OxlYhZOwTLgG8cwbncOFY2t3PPKSdgvDx3XqAv/eR9cr9Zr1Tj04mswzWNYJ/BH05HyNNRsyxx1jlilIXiRR9cI0vCFfhHntNb3J7Zb1eBl5b4dwfbya1LjPItSy5EEBBjKvEYG0pbhUFYRnScpsiCK9QnUF3IoLJOUUnKBwOkqQpyHjmyM3udsy0sQFjV+psQiSeiy46oNvIJLJUIt+Yf3qmAT1wTuMW5GsNXOH4GXtbnyjD2LVR2FwjSfF/Xc54vuSh4R3JhGyRwBNWJntv9FfPBnaiq+qE2P3yP+bZ+xxw51EtMgwSf/N0rNGPbstyxhLixmQHsqxXoumFaDdXJpVaPUip0giZKYO+zjirxVuGRaun/AM1Q8m0jIbY563MkVdJf/csPzcn4e88o2ozw9n5RfcPJ6AiSipLzcezANSGesOQ3bB3kKIMJfiUdy1EXKIVyGtU8cfho+X8lygB7N4BsBwHgJTmldzstw+i1qlQKY/McLWe5qivmLIjuZbAbuhK9VKxTWIRtXgmUY3+ZPsblA9bT6jFr+FSVyhWkmJCFTIVNMoFIUAKUvpWVIgisuf8AAmQxza25tQk69PZRkCipN3GXduzq+43AxRJPDN/TUIHFCNF4npJi1yDixtHSBgOnPVpEiptvliczGNIyNlTf8XrjheBfkyOYaHmLHmST90RMJHqsuf7Nqo1MuzYWtrrjGST4CBTjhW10wwr4fyPIRaJR4hCBma40ng2zDjp4wbE7hnHsLhrOcWDwAipwhCh2HY03M2M+J8f2kLfBJ/8A4KrZ3qUq/JW7U1eVGyceAxoCBgAQHiA94Dq+Ycp15cEmTJLw9kR7202S+5LxEcjXKrA1jqxBAhLVAz8LZottMV+UbSEc4DiRx+Zk/D3nlG1GeHs/KL6ch5LjcdFgSO4aVln8w5UbsWIZUy7JCBK5gSSTAxuHrfX7oJUAAjGjV9H5j9W2cZY3GezoZmQQ70h27Rr7tntGSrxNib4kYbccMRh+2NLQerCPEVI2h0eCKUsNUIZl2fgJSlIUCEKBSh3AHuMkUdrkGlT1Vcq+qF2iAt3GH8iubEwc1G2EBle68ANZZp6V0SrorIH/AAqEMQdYMv1VodTf44udkj4iYrE0/jxRTynjVfuRv1fMOkr3Rjd5blAjpK3VE/DsWuGNpOwwC37Gcjz6CUjDfhkWo6K7an/A5SHQCA94CA+jOK6TbD+RzHEAAYB4TWNmxmePKM2P+JOAjijquf4H3BXGuDxJG3OMSnmWsrUst7x9Z6wQgfSXDMVGZ8PXD26xxWp5yIg+Bv8ARZAn2hADAJTAAgIcBC1YEoU28GbiUnNZsACJk5Sfvmb8WzsPjxw4jLk/siKqNekW23SGnDJy+XbBJ3CcMAiOhxvkzGJhcYktIy0ITvGsVTO1blpIlauDF1ULUAgUY3RilUKYhygYhgEDFsGGpOsyjm44SlCQMwqYVHcLj3MEfaX6lRsketWrq0KH0mG/MSfh7zyjajPD2flF9OTTiOa9vrP/AGdzi/5G9YmqF8esJaQ+nsZhmUU0ZOl4xl8h2m0LwWTbsyocO8GPbugwdZESCVjne9p6Jh3JKXehuCsoaUxlnBIRM13BLmLqYwXk2XcHfzV1p0w9MAFFf+zzfyf8pipxpzgXIoCPZomHnIaHBl4IUfXYYxa50OF7QUeC22+kLac4hkEjD29qbA/9S4wbJAIudq8+mIa9ioZIOyfbnkZD+q1epzQeDjEWaG2jRmKnKCrWWqebk2pwAFUGu5PHbBBBmMFa2iKCZEkyZdzjj6Tf49uNddyITdanCLnSb7ncIue722TR1GZ5reK7lfkakDSyVefkSTDPSG71BX9lQm+m26OQedzbG6B9JbhbSt3I4mA+ks05CXADI4PeKB/uTLWUVP2eAZQ+vrVyv/29zGvrUyv/ANvcxr61Mr/9vcxqds9uXzXiG4XXHrusQrdZxCkV9FtplUu8YpFWuEbSTU/4AGl5YxJ/fY3mTWysk7xrdCzHULu6PCgZeGsyHc5g9ZCxlWcjxqTaZQOg+affYStdyLZ8bzTGhZnUIog6U9VC21xc6ZH9ory2QyAh3m05zPiZuIgvkavl4fJXcPhVERA+Q4wdK7lsIJfG+tT6/tP4P/nZPSW5XCCvwvzQukNwOGHI8EsiRAaYZUxpKDwYX6AW/ozkYx8UDspBs4J8QH30n4e88o2ozw9n5RfTl91eUs8YqGqwMbIuWsVLOGCA5KzewOcJfAqq6YB3nDcDywQLaMTXqJ+ZlYncdht+r6lW3kj3PzSh7DX5xEHMJNMZFPgA9v3lncqsqvZXbXiCyEW8VTNt2atmeFaECABwWZHcKe/l4eNnoyRiZZqm4YvG6jdcmCBI0Z2nFNiboOJamPxaoqq0+priIr1eIU05xrjx4HBzRYA4aXwviNQRFTHFeEdOMA4WVEe3juJA2l9tGEVw4DRGxNf2XMNlHihAvkNH2x44DiZB/Zm2jbb68QnYY32+NdE29OUB4s8z5CR1ZductZY80VL5qtjxkKhFQRDE2VWqIEZ7g5vuAADRccZ8QHihntNTSlU3HoB/cZYrq4BoIjc6gUezcKM51ecY51vyJE7LC47eOke9tI12yZ5w6wQHKkSW0VVLgRaTq1ortxiW07WZVCQYLF+6reFlc6W5TFUEP+DYR0kvapQ8Ps/gnKzZctNIugcySqTO07TY4/FmrRk9NcjbbyG/+mnaWl/Vvk3B5+BG1wqX/hCz4zdlKLWwVlXtfDRGtYkCARNtFLlNp1TKWsAgvUYVUR0/wviV8BhdY7gRMf5vds+GllPWtKyrHr/xjgJzEj26jl67xH8CXs9uTroAMZd61aUCD+x+uLIFaH/1EwvMooEEAM/qWbcXW85WkVbGib4TcBZAICHEPdSfh7zyjajPD2flF9NkAVdzGNyfJCpyyvploCvzKR0JiEYPimDvLM7dMSSCoOmdbNDPg/C6HHGZqaHrKDlU8y0TDujGGdF64+Qg8w1B3UHax/VpSSC6DpFJy1WIsiqQDpqe5ct03bddqsHFJZMyZw24PVY+nTVCfGHmNPnX0Scmn9a3GKPXh2GSq0kzOucUE/Zfcv8A9UKvr2X3L/8AVCr69l9y/wD1Qq+qRD5djZNdW/XKGlYwW4lSQ9zeAGk5zxzdUx9WwtCCtXk9XfIFZx6xZP7O4cJIu1xQQKG5zHBAECMrIf8AqG53GvzaWMmv7T2KCh2lnkylql5vxvepkkBW5ZwvJCiosCXuhABAQEOIDrOFFbY7aK5BxtLPKxKSki2i37aj0mEx9XGNZgEjA3QATKLHotFFRZb2NgxVVUMqqp7C0n+ToPStEoogJRpcCI6cYjxc74ivj2vH/q5wHht2HBXHUMXTjbJhZU4roVVVkYPmfbfXWpOMFe7xDiA8QA2I8qR3fXc+zXcPcQzXc9C96crSbGiHxD608rwfaC2YJk1Uyd5nEfuSxcddNpPOpSuPR/cwVmrdjQK5rs/HSZDBx7VuxtQ7qictpqsc/OICALHwvb6YJl8R5LkWCJO8IZPNVpo5itMy0B1EogPDntes9dtzBOVrU00kmJv3v25Pw955RtRnh7Pyi+nILy7Jbi4MlDi4l7JtaOsPq+c7nP5Mo2uc7nP5Mo2uc7nP5Mo2udbnP5Lo2uc7nP5Mo2pM+4eaj3EVMY9x+9YLkEiyGCKNlWiSk7HWNKLa05corsI73VsP9VmaIW9/sq1dCJQk0b3+46JWf4nmZJmAFfQK7WbaDBSjabgoWdQApk37Ju7T9IgAhwEAHQIokN2k0iFN8O17vcmALVWmMervEEj7x/HR0miZrIsWzxEwfeJObeMTyq/0ttW+TPw7yuxxtmaoB2qFlkZhoQPuxv1126n/ANxlnF0nGtyjwNL1W8Ui+MTL1mfYSqJi8FUrLgSsLv1LJRJB5S7IIiIPAyTlDGZgQyxVedQifcFlq90q94jSSlTnGsk1N+I32ZPw955RtRnh7Pyi+lsmK+6aSV6bHyAe9OciRTKKHApCgIiaZzJimuqHQl79DJrl+KQbn8JJGEPa45//AJxu4rCr/sFSv8ekY2oawQE6gDmBm2EiT+O8VCIvVVmqnLF4tHyAkFTClzlnbeVxxdD9m6VUStXI++skSnNV2fiFCgZN7HOWxtbcZY8lhilGX4gqzbqsD/kNwxRXWw0yD9/kKK9+7dM2aJ137pFu3APvKXuP20y71SSVucLXbGmIiSTZZ5mMeHIk5vleyNWyn4AvQ8nUfJMYZ5U5lJ0JC8V2ltwZByUipaqE/WqFtJxMSQp2V5ljYEMdZejUYizqdzB/9iT8PeeUbUZ4ez8ovoyFfYjHVeVnpVNZwcyxGrJljav5DeZCsGT73CsIUZKCaxrSM93csvHZTp6JjiEG0XL98ijhCcuQhI5ovL+bOfv5LDYyxzWCASDpcM0Avf631lbTESieMKH+zuCpU4UUnkTCvgMHZEs3tzxVIqC9i4ZevSJQHsPFGmdcW/37J+TItbT7ztZ+TjsoIMMq4hcClkCp9oHMTQb9DZDrDGywphAqvFNy299tuMRvU7jEgbwy6zjUv5DNZxPdcAs/ke5gtwf5LzCvku14+q1YrHbi0knbYecbnP5PouucbnP5PouucbnP5Pouq3JZ9Vmo9Gz1mntoYVODtV07aMGy7x+6SbtUSCoqs7zyE67XisRUySuLtMewd8MLuVsQHUkblWaoif4IHxDktUAO83B2MVdDijLrMv8AwncDLCcB+AhuarIiqB6lcWwAIinFbgIFo+QhMjV6VpEqqIFJpBdByim4arJrJKFA5FM+T+UKxDRz2ioglECcQmpKmYbxTeoxlb5a0yt/Fx98HTHF2NYgnqY2hQKPyEX+NcdSCIJP6LArF/2ltteNTOQlKulIVSXJ+xfLWvK2HBAcgp+2FLIIAafn69R8z0pNuLhF/FPSAuyf4jt86lJTOJ8guAWtVeICjd76ZPw955RtRnh7Pyi+i5JksO4PGFec8Ds4KFkLCZH3eS7lYpewNsQY1XBKxvkfXS8oL7Gm3SsMolFNdZ+9NxRaJt9wWReC6z5jjqDU/A3LtxqT/irbrVbbI5PxE5k9s2EGyYh7Doq/1W2v4XERWbVpwzP/ABG2+FiP76m5SukGoUB7JDye4LHX97LsI/IMGkAesWdsKhmX/H+JZsYLI8Rx7Yw1ulq9OzmSYGDUZyjBUrfJNOrs7D2eGj5+Cekdx71EqqC3vdu3xzGT5BkOX/IZTEiuW9vbH4jzeXcasePEJu702+s5JRhJwYrorD6bda4KjwEhZbE9K2j2hO0c0TTLNm9dva8pkXjagBwWh6jNZfp9PfEolIrrqwzTUoJhDBIbjriPYYQsBRmH8ZsIWyVKU9wzlbnhxEBMmfbVSxETLWi5qrfxmwLIxRjrVHMl1i1QD7hJ1TMdYj3DHIVTh8l1M5BBypVVXFcZLXXb3MKz9WSVE0xSKReq5kGvN7BXHHrEDiKa6NoxNM1eZdX3CrxGLmVDeskoKD3IY9Ony+7LrVKxNxFJ7GROSMdzgAMVdoN0PEAAqSySxe2ioRQn8RyEUIZNQoGIYBKYs2wX292YlugU1Pq0m3hU52NzukSBLR81QvAV61IofSzoqprpJrpHA6ahAOQ3ok/D3nlG1GeHs/KL6HJBQ3TMlFPwOMeqgQfdZKu7THFLmbOuT1y6KYJM29eQSwdiufv9wAXltlh5lKnxVjh2wVVyNfxB/f5ogLLq6tuV8eUUpws1pZoOQ/CyTzLerD97H2FJ162MPAj72m3L96g40qnY+aRM7ylXVSRyxjSYrCBj9jmkVKxk1HNZaGkG71i5TBRFzknEnP3id3o7ssFfmACdrISs6/tbIMu16HGPyTRjixt0EwkwxKDLJ1GTWkMQWYE3kpHRsrGy8aylYd4k6ZO0irIOPebcgA0LkWTIPEH99nFifkL8kLrcDgxH/wDgysDkfsw6H175Hc2V+HrcfU56ZtDt79bLHd7OtiLG70WiyJAPZp6l0SsY9hkoOsR5W6AcBXWuOVMe4+L2LRZmrZ0YPutCZws02AmoeF7RKpD+zdFuO4hQhVC4bhipCH7JHchLw82+rt8xTNsHrFBNy9PTL1UL7HcyqM62kEg4AqGRsUvDyI5IxeoSJvLQBUOVGzAwE+fqBHKtvUrgxyJVYmWjZuKj5mIdlcs3zcjhutIxcVJlFOSimjoohwEsthTEkuJjv8eQgqHEREym2LGKIipBjOwanERAQwjcYsn+Gs825sUAESEmaHuDcQ8nBuL9VLFHvGqjZdBlRLZD7cLLR7u6aOn7SCkkUT4hlVJXFmP5Bc/bWVgWPbH0Sfh7zyjajPD2flF9F44w+4HDEsJRBKSjpqIMPurOn9Ymc6vTu5WEpTQLDJkmWymW8yGra66gVGgHaPniUrKx0DGPpiYeJNWDNE67hZu6yHnftO46Qe0zG5ziCC1Rw/jikepXgKs0B+TiIv8A0LooOUVW7lEiqKhRIonYoVzt6mwvNRTVNjt+6ISwwrVdu8at3jRcirddMiqSuXGf1cXSt5ojk+EeqqlCWxHFSaFKvF8wy7KmpCOiDYa8R7Hzm3SUdTdfbOZPFb1cVZKLhJqJn4plOQkgi9j3aYKoL+6fOSMGD18oIARs3VXObbO1VRw/APVwAFZRy/kVPyFjAVNy2NUg+DaqS632M82Z/XaMeJgTj7RWZ2hBRYWx+2wZiGKgas3BaU7DeFhUcW0FvjqqNogVfpMs6OL2YfXS32u6W11ifF70GKjMhTWWxUrDlDonBzGw5XcyPevL+jD4hN5FzndOImIpPIQjc19w02kX/tpjp0FbvLYBOm7xVkf27jn7CWYcqtkIuDOci8nxwYtujXLjBqB65MCnEXVlh5yahXSz4bWcipEGT5/VFvs5GdJx2O7y9W7iJQEiYdYPambYixyif5QLM4h6JPw955RtRnh7Pyi+jcUirFQFPvzcoipUbOwkltILpOUUXCCgHRVIVQh/cKKESTOqoYCkIUTGHb8cH8LfMqP/ANrap968IfbaidxRJK4uAH6Za7BJTCpslLNskZWrGHnD1JOAj25J6fQSSTQSTRRTKmkmUCEJp6/YRqAuJB6g1QL8VYufr8yYycTPxz0xA4mLqUi2MxFv4mTbkcM3rdRsult8fvY2MtWL5ZcVZCkyx2CJ7nWW1wqFkrLonFOSj12waZWF2Sl4ByyuJwf1iYGrThjkIqQ6ahCnIcolMWYpFrw1KPLhiZoeSrDhUV5moUXIFWyDChM1h+CwFECOG/uc6TYVrEd7kCKdhU8Wq0SHHsEFbolPgBDgLCIZoH/IPFRX3SxKPSY/XH7E0HtduNrUScBNH0mAWllAmUhuW4qtQpw7cdSYNSZVLkm2EotEtFtOUBNHsVDoFwrTjUqgRiT7iecluMtMONOXLZk3WdvXCSDZEgnVVdZ0xG1bvVEcgwaqyKKhyk20NgRxJESa6hDu5h6/lXI6zC1Pju2VjN8SmJEG66URZ05yGi7TXpKFkQKvHyrJRA4JycpB02q2h8Jj2HEFtGBlTpKprpJLpHAyahQOQ2tw05Zq1jsktV5k8W+CZjkVHY3nNeP+6+0hK1w5B8ZqOY8a25BdaKtLQiyCZzuWmf55mXBlwkox2m5RkWKLVqtXGRYiuQMUQOAM45q2APRJ+HvPKNqM8PZ+UX0TcFH2SFlYCWQBZlINVWq5cYXVzjt8jhfJbn6K+Y/3VdlvcZkmzVrFN8l0jdlZOHcJJC2YhR9uxmBSiCkbSVhPrBrQrHEGOUCfOCaKjql46pmXLHmqxXCLF0sFvUjmLn6uMwUYe1jfJQzLBP4Q1l3CWikV6ZC8YwlIWcTaKgwdVvBEZYWsdaMvyL22WJ2gm4UQntuuNX6AOK9FDV5pD7zOTxNebC9eT+Ob+JPbGudj1jjXAa9ubSFPubW2oG7foRgQkcd7pqSQgn5bY5GRaEx/PDZaFTp0T8TPodmsf0XfDZX8ua847lzVe6k7zuoHN54SRb1XM8KNVnRECIv0VkXCSa7dUiqShQMQ/wBvO3GfmMT4zSMAjO2RN89L+QjyEX3QWJYnxa0Fmn9jDJiS18zrb/xivZk4dE+JQI9yln+eVARVCdYxhNbkuC9VpteP+CbukKxV0AAAAABwAPQo1X3A3KVavHCpMYVh8LQW58aY6BmEcaiV8WwEAoEyBTGuCRRynjX1sdFtniBLDBJKkWSSWTNxIoUDlG31xraqpYay9KApSbBdtrb9YnM9ietDICIyEWVaHdBM15B9lvN9FEOCFwo7eSITBNiPZMQ0h+ucTOkmIMVx1uPjgf4UvSZQHttmqTsmq49CSr0DIh8HUc1XDWe8dUifoN1sEpW2akwwh3jps+xngSAf1HHsu6s0+pDHax00pXvTJ+HvPKNqM8PZ+UX026m1e8Q6kHaYZvIMR7ygTFWUqOHDF+TjrRxf2cL9ZeaK5xJcMLrP0iB3vGm5jGqR029iJN1twIgApweS8dWIACFu0K7MbgAJkOQ5QOQwGKPwH07mAMtjRCHAPGLFDx2sqMzL4tvzFuT/APXH5CBh1cq+JscnKPxrzDW3wRZnzBFLdy7S/wAsc5dbmGLl5hW3fRiCcWos3igQ8i2koeJkGahVGrpmguibWTLdHUvcDTZ0kZJPha1V6nLpVzPGJbIINmdzZtnZx7Jm2RHCKucdvz1kuRQFhnke3rHTVJ9ety7LgBkXEmzRENs71RfC1QTX7jsxeMxD0T0LC2KPXiJ6KayDJYOCiA4LmKqqd3h7IUnW0xP2xiSOt0TADIqxVClOwPcuNi3NJdw46qKui2/can+2xDAq6PkTP6X48DtlNEyjmsoh9J29vB0fL+TUf2+3uw6DNV3L3Lbf7iGgvdqHLzrIs7hy8izZwRIqJal3EkS7l8P5DS0G46AAvac0C/IaDczQ0u5aAtyWk9zmLv3ozyGg3SYZJ3KTz5LSG57CCnAntqRPQbjcJH+GQmGk9wOGFfw5FiA0nm3EHZDs5Ir+kMu4qV4eryHXhHSGQsfqgBkrvAn0S605T9lbYU2kZ+AW7kJuPUDRZKON+F+2HRFkVPwKkN6KuQVtyWU1vkhWoVD0j3d462ygK2PZKVP3nlLPNPTGwwoCV0z6zP3GLchXHW6Niq5qNOdpv1mItLjEnF2bC96L8dwNv1IYXyGkwfqNs8W1ZcjdUySe2daN+pmqpMhAF0PpaL4mtzUgizxJMw4KEF/OuWUWyRYIi0Ys2o/uUE0xHW3sRQVzIwKfi2bZBlQS0uYp91DPsB3oY8V9brbwcY1jk2rHL2QhrxLIpBqyV1naq7OVqRMoRrKMVmaotMFW+LZtI5hnm2ItWqJEUEpHAlvl2D2Lk87WpwzdonQXQIGVcBxzQXLoLtj1giRFbUJKRlhiY2ciXJHMe+bpuWyvok/D3nlG1GeHs/KL9p01bO0jIO2yS6Y9wkncLYmnjKGk6BDGUP8AFQ+2ujteI1ewWqvG+QjibK8UAGrufJfgA/szxu6CM721lpMyHHQWbcmzEQcYzq8gUurWOaclyFEiJrE4QbCNtMdLOnspHkk4mTjlQ+47aLNxDbU/O5xLDRbvgDuBdPohySKVCh7h7FFOR9XGX+NRkGRtP49nIsHkdIIEWau0FEFkqxZr/iq2WLFdTgVb7XIBFByQFsnZknwFlU8JPY54cBKD3GuN16cpNWGxzIzVxnDlPKSVko1KtZDp2WqRckJv80HjenVzcnDxtKjlWrOCrrqUfpawOPMZvNtiKAgk+u7tumbbKP8A6ZKAb8CdhmSlD8gZs2P+NumbSkbGcBE0c1EdLV2uL8RWgI0/9TUeln/HUIQ2nWN8eLhxXosAfS2HsTn71cdV3R8G4fUDgbG8Bo+3vCynxx3FaPtvwkf44+YhpTa7hE/wp4p6HbBhxP8AYQsgno+2LGXxTWsKGqFiip42dTLyunkVnUmVEjpf0PBEGjoQ+IJH1tb78LVz+ruTEdV3hWdx99iVhEiFrgGEw21m2rq23FNxiGhBM8BkLxrrHNpRulCqtnSU4/To5A6gasOK7TXLHJ3fDM22jn8if18pAhmm7wxAaW3BdpI+AeyJ3VCtuepZvKZKhXFXp8YksMXEV+9WbEkwzoWXHQu4ZycEYG3SkiyiIl9NSDgibJo1UdKqbcmLtPHzizPUhSd2qakJ4xMdn9oc45itZQAWcShH1tufEnZbZT3CMCfKdjXPpyTjuNyXDtox/NS8WLdYVkV5ja7kmFdmdwN0WsjLonELToBByhk2p5PranqTgLjbeg6aYToqbwRE52yyyYeiT8PeeUbUZ4ez8ovvqccMfZyu9LcD6mMuJAscOOWcerX6tolh3f0KyQ7kslBvsVZOb31g5jZZAYy5Q5hbTURa7Gwp9anLRJm4NIxmq5PrA1ckIynrWmfIPtFb3h52RH0Xi6wePa0+s9gXAiCBeCCOFKrNRzCevdwQBK13B2Eg7Rts82qVVsFnenAqEYwXdDrb/BO69iitFflEJGTBaYdiw2+zkAm4Z1vM9nio87pdyRp9S2QPluCtmvqZyL8twdo0GHclB8Nwlk0GIcnh8Nwlg0GJ8ph8Nwk5o2K8uf5NwktocWZm/wAm4WQ0OLc2/LcK719WGdPluDW19WWeQ+Gf9BjfP3yz4TX1d7gQ+GeW2goG4QP/AH0YjoKNuFD/AN7YwdGp+4coCIZlhR0ep7jCfDL8DoanuS+WWK6OvZbct8sp1kdezO5n5ZNqo6GvbmifHI9R17P7nP8AqBTh0EFud/nmlDoIbc7/ADlRR0EXuc/mmgjoWG6IPhP4/HQtN1AfCXx6OhQ3V9fjwddjdYH77HmuO6wPljwdet3WdLjzQOd1QfGNx6OhdbozkOmpC4+MAhrCtNmse47iavOqtTyCC7xZXWemjyBGm5eiUBVc0+R7b8jJ+zlY9nJMFyrs3aCa6CmOHIYsyRZcSSJwRh5lwtN1RT7Fhr8HZ4Z7AWFgi9j3aYlWRiIWzXGXmcG1a4qzGMGD1A8hL3ezxWMaBKz3qSJNYlgCLFtg+pPKfj2MQlvHJVRWYljtp6049y/mB+njGzzqE64i1WSw5Xy26IHKdvst/wCfavck97ItcV1xgA64bpHxzCZfH8Ylo9P3GPCGB5l2CY/1kcJ3+xMF4m352mnrB0QUnbWNj2cPHR8QwRBJmybptm6Xok/D3nlG1GeHs/KL77MdBfXSBZyNcXBrba86CSg3WLcksciwRnHqRZTrA/0WZisjYmjrk8a2eGk3FeubEnBlNZRmsprMq3UMt1Q41lCabupmeh8+4YkUCfRL9FtgAAAE3OccPsERUWyNBDpXP6VgMLHE1KmrY+HuK6rOKZ6WsLS+5ilkJiebD242J1cXxs3XRHGUGoJ6bBOk3VsfkTIkQiSZQKQhQKUv+hPWLSQZumD9Ai7ZyidBZLHUo5xDaxw1a3BuSO1FHFNk8hY6r2RYQIqaBZJdsoDhi/QsmbsZl+g2urmvkGj+CYZ7mMSCcEJiUfwbv5oONyOE0UzKDfmZ+HeBR3ERcsIIY9o1ptDo/wCA61Ly/lAOxkaZQqdZU4esgK5W4KpQ7SBrcaixjWwcE0XioZtyi2jG4+uoNGeAu9V91J+HvPKNqM8PZ+UX3+QcTOZSZJfcfzHs9d2xAKLqNz0NccJQOZ607qcqJgID+FnYOeakeQUuzkWxw4gtLUmly/bPL1SHeHN8TM8cY8jDdthRoFBT+JNNNIhU0iFIQocALPWOAqjBWVsUu0jmiYCIqvbldc2mPB4zRdwFMOIpP7ZTqdAUOAZ1ytMgbsm4cRH/AES80Ou5DgF67YWwnQEwKILtL1fsLiSIyozdT1UTHsNLbXbPWLZHpytbnGUm0MHH1jpm0eAJXTRBYOHDSVfr7U3rEIOPSH+IAAoAUoAAB8AkpONhWa8lLv27JkiXtKLzF9smZFnNRxCC7OvGEyEvcahUoOi1yOq1da+pYMycA93J+HvPKNqM8PZ+UX8g8YsX7VRnItEHTdUOB0pbbljJ66UfwjJ9WZHqhxZl6EEPZnO8gqgX4IhX9zZO4L/TlP8A5noWe5cCEnc1tY9D/OSF2+UNi/TmrKrJW2YIPEHaaZESESSIUiZAApSf6MchVCmIcoGIYBKYth29Y+l36k1CpPavMmER+nBQM7wIiSvZobSTcPgkdvupIIkK9x6qX+M1V3IzIAlJ5MrkKkb8QsdvFZXeoyuQp6auj9M3bKDVo1YtkWjNsk3bIlAiaPu5Pw955RtRnh7Pyi/o+T8PeeUbUZ4ez8ov6Pk/D3nlG1GeHs/KL+j5Pw955RtRnh7Pyi/o+T8PeeUbUZ4ez8ov6Pk/D3nlG1GeHs/KL+j5Pw955RtRnh7Pyi/o+T8PeeUbUZ4ez8ov6Pk/D3nlG0xfMiMmpDOkgMCZQEvM4/rEtczj+sS1zOP6xLXM4/rEtczj+sS1zOP6xLXM4/rEtczj+sS1zOP6xLXM4/rEtczj+sS1zOP6xLXM4/rEtczj+sS1zOP6xLXM4/rEtczj+sS1zOP6xLXM4/rEtczj+sS1zOP6xLXM4/rEtczj+sS1zOP6xLXM4/rEtczj+sS1zOP6xLXM4/rEtczj+sS1zOP6xLXM4/rEtczj+sS1zOP6xLXM4/rEtczj+sS1zOP6xLXM4/rEtczj+sS1zOP6xLXM4/rEtczj+sS1zOP6xLXM4/rEtczj+sS1zOP6xLXM4/rEtczj+sS1zOP6xLXM4/rEtczj+sS1zOP6xLXM4/rEtczj+sS1zOP6xLXM4/rEtczj+sS1zOP6xLXM4/rEtczj+sS1zOP6xLXM4/rEtczj+sS1zOP6xLXM4/rEtczj+sS1zOP6xLXM4/rEtczj+sS1zOP6xLXM4/rEtczj+sS1zOP6xLXM4/rEtczj+sS1zOP6xLXM4/rEtczj+sS1zOP6xLTx4yMxdlK6SMcyRgAP/8QATRAAAQQAAgQHDQYEAwYHAQAAAQACAwQFEhEhMWEQEyJBUZKxBhQVIDAyUmJxcnOBkUBCVGOy0iMzUKFDg8EkNVOCkMIlNERghKKzw//aAAgBAQATPwAtBJ1LKFlCyhZQsoWULKFlCyhZQsoWULKFlCyhZQsqyhZQsoWULKFlCyhZQsoWULKFlWULKFlCyhZQsoWULKFlCyhZQsoWULKFlCyhZQsoWULKFlCyhZQsoWULKFlCyhZQsoWULKFlCyhZQsoWULKsoWULKFlCyhZQsoWULKFlCyhBo1HR/wBY6R7WdqkxCAEfLMorTZf0JkU7uxiZRtfsRoWv2KStZZ2sUr3RfrATcQg/1coZmPB6p/8AYNmZkLfq8hYZFJdc47uJBCuwsw2DrSrEb0t2ZoO6BYRhELPpJMpe6KGqzqRqW5iF4u6ij7nrFj+84UXclGxMwGFi8CsKtYBliYN7lcwOcNPVY4K5TihOv47GqkyuT9YVSuWYHDqvUWLGaLqSBY5hEbvrJEsIxB1OUj3LKlom3VH+bApJhBP1JsrkP6vZlbFGPm8gLAKkl13XaAxd1F0Nf7eIg5a7mqbKTfYJnctd0+KvmL/Yx7gCu5zBuLg+czmsWO3zanA+FWXc/QipgeyU8pYri88gPyYWKasJ3j5y5lBVjj/SB4voiVhaHe0FScsiWg7I36sU9GGQ/UtWGzTU3g7uKcAr8rMTrdSVQPdhl09b+GrdN1ml8p4VWna9495m1vAIBFN149Dk+x4QoafgzrCZe8L+XfFLyCVj9Z1PqyHSwqJ4exw6Q5ukH+o252QtPWIVCsYKLT69iYABYdH4RxAN3yP5AKx26+ZmndE0hqrQsgjDRznKAsEZxsMbvzrHmMCwRgt4kW9D7D9TDvYsendfme4bn8hRMDGNG4N0Dgmf/Ek+HGNLnn2BYjlwuk7e10utwQZPen/YqGBVmAdcplOuxPp13q5gVZ6qxHDb5Z+V9wlWmcVbpWBtimYvuC9U/hWGDeRyuCrGZ7duX0YoxtVm5WqykfCeu8e+4B7XxK6e9ZTuMdgMWCSmjMCecGHQ0ruoi/j5RzMtRLIb2FuO6eFVJmyt+eXYeC3CyZv0cFBKbeGyH160y7lgZCxnpTVH6wtJjsxfEifoeP6Y46AAOcrAITcfm9eRvIatWJYuWfoYVj9h1rqxHkAKJgYxo6AG6hwHmYztJ2AKnIYrV+D7st6Ucz+ZgVaMMB3uO1zt58SXXVwur+Ks/wCjVig40Mf0VYnaWxMHkGamTRWdUFp49KNyA0k4dcIgsNQ1hzXDSCNxT9Yi76fpllZ63DLXaJh7JGaHJ83hDDvnDOu5yUw3A0c7q0u07mrHYe8p9J+4Wzcly7n5jWa734hyHBYaBTxdjOl8B5MixNhqXmP525JNvy4cIead1j+ZxfHqf81UaIMcgYOd8eydTgwXK7hzSwu1/wBFs2Y4gOuQq0psn6Qh6w3Bp3A9cMWLWoKA+YdpVy5PdkAPwVhANDDP8zLy5FVhDNO952uO8+LzGq6UkgoDQABsA8Tc0aU/aynDKYoIR6jAPI9D6rxMCOqvWtVxr9oK2uEtB2Rv1YuaIzO4yrI7dn8aeIGRvuPHKasaJxHDXbmF3LjCwLTfw333gcuJVHhl2v8A87NEjCu6F+i4xnRXtjsesbZxAe78mY8iQIcGFP73uxv5i4t1SDc5YTCTNAzmN6u39YVd4ew7txHQft2FwCaeZ8Tc7tRIWMYlBT+rVJJYuzDq8lYNhEEP0e9T4s6KLqRAK/PNaPz415UFKFhHzDUBoA8jzw2ojnikHuuCk1OmDNQtRelHL4m5w0FX7DIHSwGUyxSsz7WkPXhGD9yGJV/3IXoT2OTLMZ7ChMxB4PDvkYWhb+IatjBeq/wrDRvcOUVzstwfxIT1gjtbcqnipQRvI0+OdhCwGU05s3S9jOQ9PiNWxFNG8NJuMbqc1gKmsPgowE7W1oYi3K1d0MhexrfRq2drNwKxccWyX4E2pkg4CNIIPMVL/ufEtz49kT97Vd2y9MlWTZLH9t92p9hwqyadsRnbGZGbWJ+LSS2r92D+Y+InU2FiltRShTU683ap8DquWI9yVZ8rg3YC9TdzeT9AQw+3Aobd+FQY7Yi7Xqn3WvVTusLv+9Vscml/71FZkf2PU7LEsLx0PClwSYZGMGgKxhtmAyYfZGSyzO9oCmqWWdrFBfZS70szN0WGEWBzuR7p8NCHdVhab3UYWUzuhw4puN0SvDNJeGKS8M0lbtwWWm1fjeGnTD5vDMzlsPpRvGhzDvCxqX/a4WdFO12NcsVZ3vcY4bQwO1SDe3gqnirtKUaw6KQJgyVbvRFa5op1LegYf7uQvxOTOMf2NTILB7GLvSz+xPgsDtYpZHRfrATcQg/1coZmSaeqT9js2jBxpewNn43mZkHmLDMbrzfQELwb3zF1oysTrzUy35ytAVSwyYa/cJ8r67InELplllc55Pl3gEOZI3KQNKmiaX2MMn5dWVPowu7Wo4dB+1ChCExj2fpIUU9hnY9Q4pcZ2SKHGbCjx6VHFA/tYrvFTgPjOlrlPhlWb+7lPgFcqbAxH+hS0LTNPUVZ92nernmMUzVhchs4jRZ6coIYZYwoXacp52uG1jhzgpgBEs8Z0soQP9P0yFNYFgsezUQQ9z0KcP7EI68SbZrBMtVXdhTWQyaQn0IHdrUylGw/VgCoXrMBHVepbouwdSVYvQdRmePfrrAZWYpAB6RY3Q5qvaadnT0ZJw3y/vvycNmtHKP/ALgrBbMtF7eocq7q4ePB3CzHy0Hd9YRO7dOzzFG4OY5rhpBaRqIPkulrhoKft4kyGWF/scHcD8IJcyInkgrwOvA68Dqhh5rSCYkaHZvJbAZv5tUlV60tl8kgGbQGxByGDWEcGsJ+D3P2KalYg5Ee3XIwDylDQKdtt5/FmQxHU2Vm0OCk1zWJn63zSnne8p2HwFznuOkknKvB8H7UcOr/ALF4Og/aoYOK/wDzIVO/ah7HqtjUhHVeCsVoQXh8yVPDPQmPU5KwG9DfBHw9TljeHzVT1tDmqpZjmA6hKfCGzj2Ss0PCxwnEcOPqNLuXGsH038LdveG8uJVZRIAehwGtp3HymJzPhh4qW3yzpYvCFleELK8IWV4QsrwhZVi7PJE8bwVWuy2zSsF3mQGQaREfJ7GQYhF/5Ww/c4cj7BzsfSkDyeotugTRh/iBoB8p7ZT5SeJsrNB3PBCwWd9CVpPwiGruqg74B3d8x8tYKfCVD3nZOXGFG8F7QeaSJ3Kb8wsGPFwSu/OreY8LudjLw1vp2q21m8hQP0ujPRI3aw7j5L37nlXHQAFHYE7x7WxZ0yhaLP0KyJa/1MrQqlhk7R1CUAC6KQa45WesxwBCf/62nshuM6Q4eXI06eNjLFvqTOh+we4Hu8vO9sbAN5doCwLEY6ttj9/Ekh6rWY6eOws3xPIbOpeRZg+LEVhgyQTu6LMGpkjSof8AdmLjpgefMl9Q+QrjTPctS6mQxDpcq9k2JomRycb/ABjsDvKRvy0sOB+/cm2N9xYbI6jhMXqZWaHSoVY3P9pe8FyzRKSvBPqPtBWBWH0ZGHpAYcitAV8bhj/LkGqZWG8Ranq/41C1F+gqTVNVss8+GUczmny+4Sg/YPgwrE7U8UtqnLqEzMi8IWl4QtLwhaVO7YfOxnqBymeGRsaNpc52gAKP/ZMKhfvsSrDaJvzMG986go14WdVqvYXWsNWiTDLZ9n3FirNNKV35dpnJUbg5jmnYQRqIVasLl+jD/wAWGBxAcAsSvyGIP52cQwtEZHoFeD4Sfq4FOw6D9qwO2+Bzf+QktVCDJiNJnpW4Bqe0c7gqxBkgl+7NC/a2Ri5sUww6o7Q9cbH+PzGwXCCJx9w+U2swag7a/wCO/wC4FAzvjFsYt88hA1uJKhjF7GHR+uXaGRFX8WlbH1IsiltWXn9aq4haiIPXRxDvyv8AOKVYczvHFmM+D5kiew17Jd+FxGDnjOzMmbd2K0wmbC09hGwj7d8Koo2aRcpzt0GvJuB1g+Jtc9x82Ng+89x1AJjyzjY9rJ8RLdBc53oLuertMVQdEzxyIlflOJ3+pH/DWGvjw2Hqxgp2OSkqzdF+DqSqhXEOItZ6bqr+Q8+4rr3d80/T71D9L4pB6Ck1T15h58MzNrXhS6sLxX2t2RTdDgsUhlaY5W+jKGkOYo70Jd1cyY4OH9k4aQQeYpmtmEWZTobcgHNETqeFFrFjB7xEcrd45QIQ2FrhpBHje5d8ntdPbm5EMfzcj/Ns4hZ1Q02eownKpNbcNgfrZTrD7gYOCJ/H23ndDHpcsZmjwqEj0gJNJIQxhwf1lARiOHA+vJDrYq8gkje0+iQoeRHcH4e4Nj2OX4yiz+dE4ffYQC+IqEZ5MEmn22YGf8LmkYoXBzJI3DU4EeV9UPDfsHsgaPFOuLEsVi8+07mdHFsYo9fgys//AAIT+JkR5U9mTnkmfte4qMma0/c2KMF6viPC4H72mZP7oI86wqVmKMrwTeZLIIgCGKM5ZoSeaSN2hzCmjLVxeMazBaZsJdzOQ1PY6M6H2AzmliTPNdHIMwKsQMlGj2PBUVYQO+sOVYZi1iLR1i5XzFiLB1wFi2FOrGVkg0EEwKu8yMFeJhkgBc8AksXrNiDT43rBgmYPJ7WSYhNqqxO9zz1HqbcxqTlxMf0shClOhkbGDSSVCMmMYxH6YP8AgQlWR3zcc47XmWXSQTwyNDmvadRBB1EJml7MOdKQBdqjmaD57Uw6WvjeMzXNPQQgORNQsHJHYfvhKfyojQu6p4B0tY9RaZLGBSSHXYrDnr9LVC7M17T5M7A2Npcvj2XkfYPffk8Ru0S3Dle8e4xAcqziVnVxnWJeU7XJbvTa5HudzgHU1AZxhzH7K8HTYcsRPfV+V7trzI/YTu4fy8LiyEBVhkr3fybsY1Pa9O2wzDZIzpik2tKDdMb4JuRHdI6WbHou0h+HWXaZIGfCd43+Q5fEYH+M38I9/EzJp0hzXDSCPb5E7ABrJRGgihSJhhanbSx8xiZ/ZqdKGG4Q4CvT19d4TAGta1o0AADYBwTyNjYPa5xAVW1FMR7Qwngdra+OVpa4J51yYdNpkrP6q6HubyHDe12go/hZXGo/P1QU4aQ4HUQQtPWsYd6L/UT+RZqy88U0Z1sd5LnMtvRA0Drr8xsYz/YN8tzxOYXr54qL5hi+4b953Fw9RusI7H2HciIdchO1yS3bn8R+c+r5vBK8MjY0bS5ztAATbjCXlgJ0NTCD/EtTk8DBqnwyy8MZM7fC5N1gxTN0aR2grQc82DzPEPVLCENha4aQRwMY15jhml4s6nruY/nhnpS1Hq6e9LUAZ5xfHLoOhqgeHslFyVkXII2ggr4UQZ43SyRuU6FPyK2LUAdEQEnNMzYW+R6JJ28U3+71+aape49YrfKzOUyV8NisyhGIwYnsXdUwz6vQZaZywodF3CZ7WyMGdnmglXJnMoUzI3TxUMEZA0NWCufWmgkG5pAeFGMrMRpSfyrjOx/B02sNl7RHwegS0W2AfONeu6IZuCFumpf/AC7kWx4PpIkvwe968M+xnscmODmuadhBGojyA/A4WOOk+w75bZd4n5WGRBi6GUoF0xGUvPDE8sGN4nD55efw8S8HQbOqo3udStU5niMysjJOSVi3OGkI8xkYQ13tB1px0njaDzD2ALm76gBrB6O0S0nGA6epwb68zJF8SIOTWcVYZLFGXAl7NBcE+1mw51/iw/Pl8hMOWx/pxvGgsdvC7p4jdhZ6kc7eW0LuaustA+yB/LWM4ZPD/dgcFHcjD+oSCgdIPidIksB//YvdgK9kIC3T5Xt4OmKvZY96bscyRgcDwYVWNmdlWWXRC+RjfuB6xHTSmB6NE4aonBwdGawPB8SkQ5fAsvZw2YxLGfkedXP/ABHCyd0cutibPbrl43sUeKyNUWPsYou6CAqLG6hUd+tIo+JeoqIe+F8r880r14Hzdjk/AZVJgkykwa1/owqTC7jf/wCalp2WdsayTjtYnSOZ2hG9EF4QhQxGv+5C/AexyZZjdp+hQlag4Hg9/l+J0l1gsXSyeEEKDXJXEjnR8a3exZIkREA94bqatkjLoneZRJ63ATypZZZ2Ehq3saBwdGcMcV791dEUxEjeCPU9rJmlpcN6Y2HRHGwZWtCkZEWSRyDQWlMrivi2GVogAHgM1TRsCZsfHINIPkpWB7T8ioa4rv60OQrDcYmawfKTOsXoQXh1lap2KryP8pUsZMGn2cchi0FmMRVXEkZQvVlYWHtXO2SrOUTyDiVAZJY/a5nK4HjS18cjcrmncQVHM2C/hcNslzKpe/VKWruhtxw1YPWLGcp6IysDWeZBA37sLFYrMe8ex+jMFx8ssMNi6eJjawSE5CWng6WU2Bi/+S77CWAowsT6sTu0I0ID2tRw6v8AtXg+FCmxqDXt7HISzjseo7tpvZIo8WuDskUeNWVftusvLYNORoLuYZuH5L225F9181ImvIEPxFRwnYB1F0TtGSUfJ4PBfaX4Xfl55Bl1wylYOI8Qqynpa8EITjwjNblGUW53M8zJzNR1RzDmr3vQmHpIkaBFE0vJ+gXOI7UmiP6tC6XwjjZx11vsVcx4cMsmB+cjRyxseFcxG1htkjdIx72JuKy4jhrj8aFHmhlne9n2LYw3GDJbiG8+ctnFXIdYaT6D9hUvJlhmbqMjBzwv5ivSyDUwb3HUE7a0WNcMXsYzhb/NsznzIYhzucvwdYDRXqj4bEedzGktb7XFEaHcZfeZuwhQMhyMM7y9yMUKNaBGlXRw6qjhVMo4NTRwWojgdRHAqqOA1kcAro9z8CPc9Cj3OxfvR7nYv3I4AxHAwjgyOEFeCno4ZKjhs6NC0jRuLvS4u97i4q4stxabiz3Fx9xd9XFUcXxDj53ShrS4AnQCo/Omwm3ois9VN1tfFK0OBG4gp+phEx02KbN7DrA8WYcnR07iNoO0J4Jmq1mHMcJjn2TJuprpABHBC0bzoCPnm3ePGOB3tGhqw2uDAWV62QkyOKvYpWrq5jXHf/kg25ZcFSwNsh+RlVWhXqsliO1hLUNjIomhrR9B9i6J2bYX+pKNRU2qanaZqcCD9wnzSqQ0SfDsN2SxLAIn2oL1Oty2sdC3XEXO89W3Go9u7LMGKK02Z3Vj0lGB1LDI9755gFWBGFYV8Np/mS+ueCP+VZmiOmPDoz+tNGgADUAP6G8aWPjkGVzSOggqY8l8LzpNB7uaWInkqq7JapWR5ssL+YrBdDcSEY/EVXee7e1YthtiB7D1SFHDO8n5Bir0H1avzmn0ZVgU2e5ZZ6Fm12hqhGgaTtc47XOPOShrixLGmeZCOmOD7WG6auIRj/BuM++PWQY6fCLXrxTsByKpMyZn1YSrFKGRx+bmqOhACD1U0AADcArUrY2/LTtO4K1EYp7MX3o8OjOjro65JZD50srvvPdzn+ixnJPWnb5ssL+Z4VCIyyRR8wxGIawR6YVWUSaNzgNbTuKljD+1MqxNJ+gQVmVsUbB0uc4gKaMxxNj2PioA6C+Q+kjrfLIdbpZDzvedZ+2TxtkY4dBa4EFYDckpHqAlixvDYbp66fhkwKwXB42ydeRd0Fk2wD6kWpiaAA0DYAB/R3DSCDzFdz9g0nk72N5Cx/CmSPA3zRayuKutWE4UZ5B7DYWM2SajHepXZoaoWBkbGjma1ugAf9I0uG0BZgswWYLMFmCzBZgswWYLMFmCzBZgswWYLMFmCzBZgswWYLMFmCzBZgswWYLMFmCzBZgswWYLMFmCzBZgswWYLMFmCzBZgswWYLMFmCzBZgswWYLMFmCzBZgswWYLMFmCzBZgswWYLMFmCzBZgswWYLMFmCzBZgswWYLMFmCzBBwX/8QAGBEBAQEBAQAAAAAAAAAAAAAAAQASEVD/2gAIAQIBAT8AVut1ut1ut1ut1ut1ut1ut1ut1ut1ut1ut1ut1ut1ut1ut1ut1ut1ut1ut1hZ8cnxyfHJ8cnxyfHJ8cnxyfHJ8cnxyfHJ8cnxyfHJ8cnxyfHJ8cnxyfHLJZLJZLJZLJZLJZLJZLJZLJZLJZLJZLJZLJZLJZLJZLJZLJZLJZLJZLJZLJZL/8QAGxEAAgMBAQEAAAAAAAAAAAAAAAERElExUBD/2gAIAQMBAT8ASUIhELCFhCwhYQsIWEIhYQsIRCwhYQiFhCwhYQsIWELCFhCwhYQsIWELCFhCwhELCEQs+QsIWELCFhCwaWC4vIXF5C4vIXF5C4vIXF5C4vHYuLyFxeOxcXkLi8hcXkLi8hcXkLi8hcXkLi8hcXkLi8hcXkLi8izLMsyzLMsyzLMsyzLMsyzLMsyzLMsyzLMsyzLMsyzLMsyzLMsyzLMsyzLMsyzLMsyzhn//2Q==;base64,/9j/4AAQSkZJRgABAQAAAQABAAD/2wBDAAMCAgMCAgMDAwMEAwMEBQgFBQQEBQoHBwYIDAoMDAsKCwsNDhIQDQ4RDgsLEBYQERMUFRUVDA8XGBYUGBIUFRT/2wBDAQMEBAUEBQkFBQkUDQsNFBQUFBQUFBQUFBQUFBQUFBQUFBQUFBQUFBQUFBQUFBQUFBQUFBQUFBQUFBQUFBQUFBT/wgARCADIAMgDASIAAhEBAxEB/8QAHQABAAIDAQEBAQAAAAAAAAAAAAcIBQYJBAMCAf/EABQBAQAAAAAAAAAAAAAAAAAAAAD/2gAMAwEAAhADEAAAAbUgAAAAfH7QkaNabTtXJZAAAAAAAAAABhY3w09H9gyc/Ifr0wdOIAAAAAAAAA0bw03Ld5ijMzlu4+kGkxOMkc+NrL+NM3MAAAAAAA/lV/zpRqduJM+h9EReYmZDf4JkhvKSkc6LJTpRMv8AK9WFAAAAAEaSXQkwvQeNpNMLEv8AY7JMhSBhKu219F7sRSq3hYb4wzPhzdvrGUXlygAAAAYbn/cGCi5sPzBDJ4qPTbCQkH69CCoUP9I8ccvP3IGCLlZqJN/Jf5wdJqEl8vpp+4AAAAEJRtuMYl04bmSGSq8czdCJaG2fO/oQegxpknOvAHTOG48kEmakF36Blt5FiOXAAAB4vbBRja09FqnFuIgk/wBhCNHbt6CVi3zQxYuItRD6fy3xt+b02ezzc3ugcCmyT3i4vJmAABrGo6xPgBCUx1kjsuZEU3+ghWFZ98ZWzbJp/IxG2ygeDzfqh5aeX4Bn4QrNXzPDkoHngAavtArRtc2CE02CEoGvMOd1u8nVgvU5vb6XkUvwxeaGKiSWR5JdoNyITTYITTYKv2OyQAANXwhIbUttBpBu7Qd+Mfo8kaearmfv+jbvV/P6GlbkfsBjtJJHYLOgCPZCgAqRvOSvWc8OhWC2IguostYY0Syka4ovnzo6L86D3YPdNULCWYrfZA5fdLuaPSwyvn++CKKtCsuQN0J543ZJTA1cKA4YNj6MBTf0BldFC9PPMLHxoGStsHMrHhL1yg5126Cstwgk8H//xAArEAACAgICAAQFBQEBAAAAAAAFBgMEAgcAARAVFjARFBcgNhITMTVANyb/2gAIAQEAAQUC9uabCvENc7+LJ/nfbsxe4SV6d9b18bmtUf8AKZKwgxmvRU2UfHevIuF61iO5X/yH++3Zt666x65aqxXqyNalAFP8bkx9LINTH1kwFC9ArN7kWwF6WV4pdFKAEzCwCf8ACzvotW6ane60EqK2bY81HVxkcb4Y1Ie6s2RRpYmStgWVHtdbhjRD738cfNqd45LCSTcJ17WwYB19mWPWeLHqsQa6NLpdIIoWz8DGXu7UfO+std69yY84K8dWGSTGLC5sep3Y6neCPPK3bnd91F8GbEHW7P8APCA6sVqPSPMo3NYPnZmL239o9LgUpYlbztavHUgOHKi8PrhCb7mWfV9LiIbkN2cutos3WQ3c5avkPZlvYdeSMprfKhfrlKZUXXNDzA24lsSsfjZQntbQPdmmjXK50urksuEEQOrk+GtjbIksS/Zjl3hlrjYnZXv9PeuWLm3VvomD00e7qF/ZNX+hQhNGeoGvmxbUtitsQ1gnqnguIpZn6y0iQ/bYFImsScwzyjzD2Ytjomvi8hVdngwswdfuqjThn1Jh7G0rPy6TpWr1Iwcw68y2pt4j3cbuISz00MEMMdaLhAfXK0zqQUFFvTBjmna5EZdXevLtg82tV6rOidZ+bVfY3B+HaO+HzfF7/ouxPj605o79HzH3R/8AWebk/LtefhfsbjMRQhdL2/2WTmPflu1NvDu6bbxEZvSzBBPHah4RI1xNI86Eixf1EV5pyS+RurnfmOwObSt9W3XWBmIkr/fduRDqi2DkboFIj2vtXNi1JYamwQ2Dkp+C67lljmW7SfcZ9qJs0vI48pZBVeLW6Jr8PIJXbNjCpXixlaWZii9EM+OXWeP3Oc2bQdggwrQs+r75RwH1s6dCSPGaMLZyQTWxtbSRS/Zjj3JlrnXnk/MMu9isXGUTIdB6915eBsxUZCZHa+JzVvuZTsS2G1+ClHjvA9tcUHv1bUV2uaC1D4+AuTQMiiOvPEJDTJmvl1qpl7yG6WKT5UV5a1zXz7KbHyo0YBtQsVrBB6pssczS+D+PmHzDiEJWh9ln/wB06+O00LuTvX2wc1iWrahvV88OpMb2uKOVjqk7jufPvHfOxbmT4K14Mo2OFCtULSdnWw4XtZIfYKDwkjxmjU5MlFk8WbMjgFWoG5YGedu3PO3bnnbtzzt24dQGC/bWnEonWV3ZIc/j9mWXWGLJtQSFxLnSzsTWkpiX73nbtzzt25527c87duMlNwY+hstieh7LMii2nE9qcyJ7pMZxczrbhPwdfWsx8LW3mGx1YKG2iYBqAoR7XVIarw/4rg+qQwsa5XLXfWq1n41tfr1TuvVhpx+4UZxQSb6hLvBjYIMWPC+7Axlqs+gLc/habwtGx66X+YvADLL+fDN1BR54Z9SYeBAjWFVfqKucEnKB2LxeWjtTBfC+zFvpazcXVMvcZIscsItlvWa1AGAkWe4eVia1nq18lJ98fPzEfrk8UpHlMotc06y27+HCf9kM/reWJ8Ktd3dbDdeq64YLlBeYLqmVBGIT4nw3V+LajsxV3DlMyOtlObq/KEzY3o8Y17Q9UhdT/m3Hz8xFbUMBxzM4kWzPTi/jVocJ/wBkMy68t+PXD/8ARD7PVK/9csuMprphN6w/BfBkXqrOLYVq8sEvnrvxUqJa4fj/AFdR7mryys+v9dUGQM6ayGAl3VVWaJ049VJ829U14Cvrmz0eiDj0rhPCS4SpWOyPydnmqq08bme6+IMSIkuFPo0B45LfQNi1nhlGkc//xAAUEQEAAAAAAAAAAAAAAAAAAABw/9oACAEDAQE/ASn/xAAUEQEAAAAAAAAAAAAAAAAAAABw/9oACAECAQE/ASn/xABUEAABAwEDBQcNDAgEBwEAAAACAQMEAAUREhMhMUFhEBQiUbHR8AYVIzJCQ1JxgZGhwdIgMDM1NkBTYnOUsuEkNHJ0gpKTokRjo/EWJVRVg7PC4v/aAAgBAQAGPwL3s3XCQGwTERLqShtuSJN9T89zebaloBB7UuX+7i+cROpeCVz0zhyTTvbXTpnorGQMnHRvA39RU0LT1lT81p2aWRcRe6HUXT1/NpE6QtzTI4vHxJUm37QT/mFpLjz9w33KdNm5E6qYgKqN3MzWx7ttdfTZTb7JI404KGJJrT5qzYbeezLPXLTVTQRag6beKrkzIm47HeBHGXRUCFdaVL6lphqqs3uw3C7tpdXTbxfNHZA8KSfY2A8I10UK2jKaZmSFy0lx9xEvJdWfipqIzaLb0h0sIC2JLevjuu3Ca66NAYrhVHEUM/lSmLcsd5t6fZq5UDZLFjDuhzdNNR5zHaOjeo+CutPmSg85l5eqM1nLy8VMyV/RRj/Ag2Xabb+OsqxDkysXfj0L/EtQZ8re7LbDiGQZS8vQl24+8ykeSJmpIjbly+m6so6xKs8076l4p/MlONK0kqG6WIm77lFeNKxQn+yJ2zB5jHyfMHLPsRzRwXJicgc9K4HY49/DlvaL/WtCWQ37JTv0hL/MmhPcqJIhCulFonIwdbpXhMpwF8Y81ATmJkkW9qUyvBXxLTdn2qotTVzNvaBd5l9+csSz3LtUl0fwJ66SdORQs0FzDoV5eagZZAWmgS4QFLkRKUzJAAc6kS3IlFFsiK/bclNUYeAnjKrwjWbZQcTxKZ+i9Kv68wF+rkM3JV79nQLVbTTvVxQL081b0mg7Y836GaOHzLuORZbIvsGlygVIbak7Z7q9id1ivgrtpLLnuXzm07E4XfR5098Nxtf0x7sbCbfC8lI0alvceySHdd3OtNsMgjbTaYRAdCJTkyY5gaHQmsl4koZdtqcGye2Zs1tblNOM16eSt4wWhedDvEW5BFfrF/vS72CPDDVcONfTzVf1y/0W/ZpEmR2Jga7kwFzeit5yGxy6/wCHkpcX8K81ZRsnLV6ne6bLO7GTZspqVFdR5hxLxMaehygxsupcvPStY1B+OaG06ndJqKo84MxElzgeCetPe3mxK+PD7AHj7pfPyUzjG6VJ7M9x7E8ieujccJAAExES6kpbdmivWqMShAjloL/MXpyU7ZdlO4GB4L0gFznsTZ7lCFbiTOipQ2RaxIb6phaePvn1S28tBhzdTtpHdh1Rnebpq3EtFof0iFnXa3r82nz09Zhl2KUOME+un5cnvUyYveGic8yVBYd4Ym7lHb9aJwl3INhxiwyLUeyaqmptO2Xptpmz4PYnXhyDV2kQROEvTj3ccVlAj/TvLhD8/JV42jGVzwVErvPSJOj4QLtXgzgXl3BMFUSFb0VNVG1Iu3wQ5JxfBdTQXItNhI/XIZLFev03j+V1OMuJibcFRJONFrXjgyvPhL10Jit4kl6L7zOu0uYA/uSpj696j3J41VObccUu1s6CiDsIvyKjYv4EVoW0TavCXl3G47l+9W0yr13gpq8tA00CNtglwiKXIibjsWU2jrDiXEK1JiswZUpkC4DzbJEhDq0V8Uzvu581WhGlQpMdl1tHEJ5ohTEi3a/H6K6ooSfByAblim3uvSu5LVMyOiDn9t3qqynVzqsYEXyJd7yX24eurW48DfKu51U36cEe7xYKtW/6T1JuWvf8Jhbu8XCv9Xu3bv8AtfC/qJuB+7BylVlX/R+tfeW7MRMcmQWUuTuQHX021JYXv0dbvGip+e4aL2loweDtIfyGifu4EpoTv2pwV5NxuS5fvZxMk9d4K6/JQPMmLjRpiExW9FTcdlSnUZYbS8iWpMpqZJjNOFwGgdVEEdVfGcz+uXPVoSpMuQ+y22jaI64pJiVb/V6a6o5qfBxxbiCu3uvSm5Ouzo0gN/2pf6aYjomB+F2F1vkXy+8PSXywMtCpkWyrYtyeOFy0WzjxQLvTWjp+dQX3eAjT2B2/Ui8EtyFbcUcUiy3sqqcba9snTbTNoQeyusjl2rtJAqcJOnFu4Yj97GnIOpiD8vJVyQIiH4XCu819IU6Srgj2rQ5gHybggAqRktyCmtaJx+7fAjlXE8J1dA8ieSm1kfrkslkvX6cRfldTr7i4W2xUyXiRKRO+TpOfZiKotvMDhs6VdHmgOgeIunFtpCFcQrnRU93F6l4pKjWZ+eY9yCaB6bKbaaFAbAUERTUlSDhCDcKR2YnjXMCr2yeO/lqOw46r5tNoCuql2K5NNE2YoQElyiutKWxZhL1olEpwZBaAXW2vTlp21bJaxtFwnowJnFfCHZ7lBFFIlzIia6S17WFAkImJpk+9J4RbeSgNEX/h6zTvRV0SXebpr3JcBqRvYnhw5S6+npNotigxg7CYreJkua9PJf56kQpCYmXhwrz1K6nZ6/p1nLcCr3xrUvTjT3Uic7nwJwA8ItSU5aE7hWnaJZd5V0omod0YrQnNITwvG32rfH41pt9g0dZcTEJjoVKchzG8o0fnFeNNtJFtcXLQsZMzVoNpeTacRpSzoTotOn/iIqpcq/WH/ZaXer0eWGrhYC8y89XbwFNuXDnpFmSmIofUvMunlrfchwcvqfkLea/spzUg4HLJ6nNalmdk8ydM9NRozaMsNpcIDqp6ZLPJstJeu3YlDGIVhTS7Vo86H4l3YnVNAG+VAW54U74zr6baYlxyxsvDjFfcjG7ax7HXE5xOvcXTiXj9w5bVnt3rpktD+NPXSRJeJ2zDXytLxps2UD8dwXmTS8TBb0WlEkQhXMqLSyrLkP2JKXuohXCv8NXNT7OtQE/6htQL0Vd1rsxF8LKrdy1dJtaFZja6UhtYi9PPW+pSu2rN+nmlj9G45LmPCywGlV5KREQmoLa9hY9a7a65TgunujwAXvQ867pAYoQElyiutKk9TT5LvR6+RAMuLWPTi2+4kJZTOWnGmBvhIOG/us/FSQ4/U/HPhKZuHIHEarrXhV8nYv3gfar5OxfvA+1Xydi/eB9qvk7F+8D7VPTG7CCGhcImWHhVL9iX+iiBpVVnF2SI9ov9S0IK9vKUveZC3eZdC+5UiVBFNKrRNxS65SvBaXgJ4y5qDK45DpLc1GaTgj4kpJnWFmY6PweWfC4F47sWmvk7F+8D7VfJ2L94H2q+TsX7wPtV8nYv3gfaqIRWGzGkxXMq0+1IHEP91MHLZ3vJUeyNXouEtej3pSkNZKVqktZi8vHRHGFLSY42e3/l5r6yTMyTEUe8noT+Fa4e9ZG1xrmVK/U4N/7J+1XAcjxvsmvavrJuPS7QNe9DeSfypQnPIbOY4l4Ti+SsMJi5xe2fPOZeX5nglRmpI8ToIVXlZbafZkQci1+oL/Xc564FlML9pefLWBhkGQ8FscKe+o1OnNR3VTFgJc91fGrPprIQ57T711+BFz7pxpNotNvh2wZ1u81Ay1abKuGuEUW9L13TYftKO08C3EBHnSvjaL/PSIlrRb1/zN1RK1YqEi3KmUpCFbxVL0XdOTLeFhgdJnXxq1/KXNROQJQSQFbiwavcLLBvKvGeSaRdCEqKt6+au+TZ0gvKq18Xf67ftUkJkHIcqMd7jq5sjt6aaASNXCRLlNe620MGHmnvhiyn0Y6L/HRtQmSku9uZKuZPGq02NoR1ZynakioQr5UobGnKrj4j2F7wkTUu5a3260zLjQxNh0cQFlQS9PPTS2hGyIu34VQkJF81SLLkFlWo4IbRrpFL7sO5L+1LlqJ9kPJuOPOLc22KmS7ErW1AbXsLP/0u2hltwFyRDjFFNEJU8VJJj3iQrhdZLQacS1GtBhFFt5L7i0pnuVPPuxf3wfwHQZUxDKMkA4tZZs25Lhx32zms3ZYB0/nuRv3QfxnTkRLOGSpuq4rmVwakS7RspyAVlixiISRzLYsNy/s1F/Yc/Cu5a3261HhMNxFaZHAONtb+WmVmkCA12jbQ3Cm2nrV3wLhyEyeSDuERde3cl/aly1Ez96HkrTVo/uzn4VqNIJtHUacFxW17q5b7q+Jk+8//AJqTaCR0i5a5cmi33Zrqsz/yf+wt04Uq/CvCA00gWpaKLIBb0ztujoNONK/WJF/7a1H614wloWLK6hTWpbKHGqEd2dUS5L6jKDRmm9BziN/dHTsm0N9NPC+raIBYc1w8abakTISynJAKOESJCTOSJxVFI2jFMDmdR+qu5aqiy4qK+udBWrPkS7OxSXGkI1Vw0z+eociy2DbyhKBtDeaeOrRExcBtWhXCSKiX37krsDnwpdwvHXwDv8q1GU2nBHA5nIfq1aKJnXe7n4VqGw6y6jTrwASoOpVr4SZ/UT2alQobb7kdvDhIkvXOKLVmiQqJdkzL9oW5/8QAKRABAAECBAUFAAMBAAAAAAAAAREAITFBUWEQcYGRoSAwscHwQNHx4f/aAAgBAQABPyH20NrRgIlWkbDY1AMrs36P5DiXGTrLPOPEUFgK4S+Rjfe+tMlekuVt6xE7D/GS2BRm8jdYOtS8IQ6N2SHkaeC2mzYoOYsf81g2TGQkf4qmJH7mYdajIAIAwOGESCZCEpFS5sk9Rj/EiiFW8uiZxj03pYXmjfXK+TnLnRbAFFMofJwAirAoMNyKgMDgQukr2vHJnTX5oXwV5Mn8JocEwepwPO+g0c+c6VM9qXtgVNQ3oPxfmlgYqnDIk8uFgnjVVco80YTEHZlh70bsrsuq4XIkS8GFRCJT3vzG5J76glsFCwLrjz/HbWjnVd4rNGf6UqKq6SRfyZ70EEFj0HzCBSJQOGuXh2fCiHna5fC7N6gQljTo/wCLth71mgv9+d+Za1ot+wYg5HN6GcFxBEiyCg9RZA1WrXP1XacNwTerqBcCvwyKgsdq+S+s0DWD/cqHMFbCvZ7xNCARkc6iYCW3M0dyr/ZLuPpOfer2a1XLJ18xfJ9wy0V0iL9C/ONakWm+zcJ1Ld3Kh59MgWAVgFqF8uea0wXslyzHfemp3Z7H2ITri1rlIpvNtaYgtmKmewpu+TQChyxBdT+07UIHW+3ZZ+PLFy0F8T6dqOfG+ZoNEbjUMxnxckueZzKj/iplf7Gye3fDABtF/qchRlDhEsU/Zm0YIVGACVaihie6Nx5nc6nbKb0c3y1ufLH0JAZIQjrWgPM38B+WMQbI03OEaP47qkQ3kLtg6qLj5KcDnzPs9qESzDmoh3p5VMV13LziOvBhQWPRn4ulMCep2Z1YQnWXG5+4xhtn0Gg2iYB4PqmqOhnTatmHgaFj8KMEpUJmNkX8GKVPTBuxC/iZosbi4AhO1PFqNy/Q+aj5QTMfZQqhhec3gaNqZdq7dl34YxCDVzPe7VciyEQSeJ04A/JLZKHkQ5TRkKRYsAOH3ld2aOjUJibJrqREw33ngkw6zKWgjFP0VhV7JC6r24C9YzoXlUjSUmqK+PZlYwu0UPZfnlw/bEH/ACtyx7WuGVur3esdh/h04MYMSagpnJ+zR6Jz14vm26aKNRBzRb44MKIlavDvd6t3C8kEHi9eBSQwbmQsNwPR1o/K5UWCPD6407NVyKkWFP1YQMTATvPB9frK9qILiFWNPYouOnl4CDhF5fINQYtMxI+B5H2DrtlkCa2MrkEJ1i+y0l6iLVpOQvbg2gYukPEdKZeMf5QwDGseIV/sr42MeoVaqeKX4b0oapJ0gz3b8AzKNlTACrplyNP0PIak/kPeIdy5vNSU3PISvYpzDe9Qew+KlChO6H08qn5CISJr65ZJVZB5jZ5u+g6ufARAFPoYimVGLAsGi9TLWUHBI3p7TjZEsjQtzT3Tc5XfvYxBTvhBnqMuWHoe+MHKtAqDlVwi8HL5YJuRcsc9z8dlbaDzJFEnBiHnTJSF7r0GYDZU1M9c0G4wnKvqnXNyk6eohvs0cf53xNT+Qj3V9qJmN4y4ikDaAmILhaFt6C7FSVYNAnzRbKNkKfU09y7bf5OBfx0qdkTr1KRNzCc7FJIBrhrmI+eDsUEBksztDw6J1aDMpNs9A/4/CLPPLD9nRtZUzWQZq2CnpQi/7Hsx1473EGMDyl6JyqLOuwcncwfTbn1rNwRHoFjsx93Y/M9aXuRwXd/s6i+Ns6LgoL4wciaJWPapnNYI2EKyEELPxPNYRqjwr61WOUXPD0oDxjZgdlbvLvWFFCTduQM10K34wRcLeL8YGakrdD3f9OhbXi05RsiWRqT00ma8utnqvQUTGmmmSCzzFAr/AOgohB09GzZslpgEKdR83t9HSrLBCJrWx3jrNHotEk39mDtQySXPQfMJVAFGPGxdfZ8ulFLlC7mX3t9Wk/F0bYB5MPTs2bNgFcy2aXwMD0Kju/augUiae00CKIuzoPPpFBTNwoBu70Zjmu/F+KGChzQtRw24qMiYzFTuoSaknYlg7U3YXYwbCx1elRyAjvfo2IP4eyhe+Smi9/wCoUpzRolF00/LaOG+Bewe7GN26ogr8/8AWrn9FwgxgceLu1iJHowb0GlYUpgSgcbZ8WF0eBZUogkFCARkcE4JPUgSJlQTigYI58YCezIDSo6BIc3K73G/oiWt4iAA/FCkEntf4QB0A0rb1gxMnrLmPEeF6NM8AFRdBa+1ThXfLOsGqRjSJ0qGAUGbiov5omIJjRxJEnamNXXuivvhg553x4FCApnSDKgbVDsGJKYxqbkZfmA00w0iv09dft6eFtdYTAS+CrZnV3/VeMNVXM5I3GzfKlAuSSRc/wBDTsrg7okcgno3gqsnRJIG7Dw/6YJDowdMOLjHLcpcEJ4bs6nMLwqBsQxJMc/RaKRE6JiaoaNFLcI43KrYzp0x1Wbw861tOfD9PXWEHP20NgHh2VI8MBCTnEcNZkFaPQUzBMxOGdeLxYvhMhIg93otSEhEulb6ypeH4O9Zg3cmeHkZzF5oEmBfjMheKHcQkCaoriSGLDC5qj2XpiQsFwWgE+8g4SjWRIak0QZu4DFCnmFaEgmUqfcsAGPnfgxjjfNTtw2JcrwDFSGFCAzoT/hgQosxo8LxszvKlLgGK0bpEhhOD//aAAwDAQACAAMAAAAQ888884g88888888888o80888888888sUow8888888848Y00o888888840s8YMw88888Y4UoI4gY08888U4c8400s8888osQ08s004o888c8w8QYQ88o88ssM88U400MMs88w840sgc48w884UMkEos0UwIk8gcA8Agc8gAcA8//EABQRAQAAAAAAAAAAAAAAAAAAAHD/2gAIAQMBAT8QKf/EABQRAQAAAAAAAAAAAAAAAAAAAHD/2gAIAQIBAT8QKf/EACkQAQACAgEEAQQCAwEBAAAAAAERIQAxQRBRYXGBIDCRoUDwsdHxweH/2gAIAQEAAT8Q+3N0r4stwAKvjHn3oFHjJOk5GAiCMj/HsNlBxw0zsKSHhyOZGAZD3CJ3IO2NIvLNIl1sWmQ0/jR1yNDRl8sfIyvi+MzjLsBF2ja6CUEWyGnOweR6WOPCWTwvCI/xWMh3R3pvciZ8hwB7B4AoA4OhngFtyPYt47RxIWGHTKwJhhr+IIY6ugndBlnJDYy3P9XoiUOiyiw4c6C1Sw9oPPQHCClgGhI3MZui5TUCBgmVkBkTgFEh/KH5IEpP4Vh4RDJTJwG0hnAO56vVlaVTTIVBEqB/wQvdUbhHbIBJRQfZOlKhNswSch4XvI80PQ9nfiWMUUpAUdCFA2tsVDWQC7yOwJ+CZr77hAEqsAYsgSctpGq0/wCnK58plGTPu1BieQYjzAie65t0gjuwCAAgAoPofYomtsRpPGFTVH/NiPmXlXWIKqMi5KGDcUNkMsaDFDWh6fgIWiUL7qayW0l2DR3n+JVcQAVd3ZBA2spMsFLu+IgBQGINCABJUUAcuPg6FH1KIMQcL/Jj3Wj49meffT9IZctlHPKBgvhHG1RE1ruwxaL+A4ZAEgZEy91ZC7JsGxBEERxchIHIllABaAikICVwNBu3dIldlKVH7btoBC6y5PUkXFpiAkbC++C3dksh8PoGAOwGBwoWKDclJg0AqgKAvLLzSVFiEKtI2xK/ljRTQisQJdMA2iwcXlLeh6yWNss28RgtXSQR4cMTryqGWtbuwiSgwQ/Sap7aLtXBHkZaTHZIjYIigREQTGaPTS7TwhwEMG8cqKSagEWAjTDhMz3Z0e5E7LUc/bd7eMfpEs5c4xPQEkqXkkBOGc5KhpI0k6AFXxjAChqszS6C6DWUb/RQaP0Mg25B+nNztMMyBLEbkxULoZIoZqWTJ4Orm4nMoyyaCeKM69AAJVqcG70CdB34xYoANIDiKfeP7UqzjJ86QD5wOFmhQD8X7dO2qniqRcQz7xYyQTCBQEvyN3R1OTRbkDCOFyxgCQpjuwlh9oJ+cuPrMZuB1AWOAmI6IxIIqlBYiCJjFEKVQMNS1nGpOJGUDmnyCqk8jO5+N5HeFJ84KRESUxj8D8mSwaQghE9ifZX2XnZ5+S/OGznBP/RoPy6eTXoDrwUPoZK6EDQPuMj17dCVEoUQCmmVliRZgF9uCIAoAIg6N7cbIjpNgwhYgiJj93igCdVAANAcdAlpLqBACXMFph4FaIIAHeW9OgtxsFSq/Kva4ttB9qB8q37P/Nr/APUYJsTX0Jf89EAvKPZjANrXn+tEdPnjvTvE/wCP134J8yj9dAxGBj3m/wAJgTyR6r/UfZnP9SKiAdiE1CYKe1K6TPzfx08DZwHHyRHoYQWAxYfuAr179IlEjQY7xhZaAYMgwARIFInRFxEYg4DaIAtUC3H+4B8Eb2RBaXPSM4Oz+AgiBJ2HnnkljiAB8ufToBEZnlg+B/GRP8kR5MbYSb4PH2OS6dtKDlqA2qBvEZ2dRC7hRABPGecbSBaAeTjvjebwrouSjiFexWBLCvIARC/MHcPVkdmUatZBHlkcziRRhKZ70vxh5RSj2prUq6FT0dR1l4AFqqAHfAfcSFEEmxXnHcYbzDaFCOUABxgCLVYVd6RzQevuMz6Y+DF8ZdSQBjsFmNhM4PNU5YkCUiMz9Y3PsMlHiSJ5esRVjALDcAAfGCwYMpYTeDCIkG8jSIzYcxhhKS24WpfAxAdiKJ5xZQSL8jXAV2ipZnd6CdZOxlG3KCoykMO/oOg1S6wAtVYAx20igSCs0WQtJXOdKUBpgPJ5myPHoWkdpqIilMMgt4Na4gGS2BlCFYyKKMAtuRoyuEOLz8okkS/aETsXY/VwRdBrhzolNBcZo0iZVgdhKkPEeqWiGCao5mhREWsgZz6BIP8AYw3BSQBjV7jD5REUS/hnx4IlQQDvhVwmCSyZffXnkbYTlrQJ4EfhZdCY/wDDN/WOayThHJA+eXrFGLoHWNbZfBsMRvCRHsliSu/KVWBb2ixP2qqqlVVVVxxoKjrdsTkL85Tc+3paQGBMS7Unq6oanmJF3Gd44DhDOTuCw4SQ4ROPp4zt9zUXhKQyQOh9D650tELJtjQ7efJIJArax2psvOwZHTcgvyJ+I4RG8Si0S8QopE4cQIUrlOpz/RrOByKjiQyeVvvI3E0p7QyH0gA/YCK84T5qMybmthsQHGAAAAFAZKQUu+IrjQAri+1Asu0qAoCQtk4CF6Yy2JwXtwFPUSjWBiA7EUTziqCxEZ5bhoq3w+iFMAAVhLJEJV0RMMdEpbWgSQB4PMv0ZcuVIiw7HLtysaxmY5Wk6EhhPIl0DEVTiKGQgCMPHgJOysDOiV7cAkEJE0/Q+xRMbarQHfBRSifJuR4lqHlihQsnZCbguZBoKHiQ23ohIqGXIJhPoy5cuWAFu74UzCijv5pkR7AgICgIqFpJhk+0acVBwUogqioUtsZXb2ckyT4WHjpiQvZFOG/FH2Ui/rExB3EPx/vi3Gnxwwh1wuJnYPxDFnMIdmKt1JJ3YtOdw8KMiQMfJE/wwo6QEvoYMtp9XnoM/GSN46v1P95ZtggfwdzREwr6EPuyyBJXJBAoKMLuGNOf8HEe3bBGAlC0JqXQ9Q6YmMEyCIJJMnOFBYBIiBisBLt6rL+GB2HDn/KYkGAgJWCVo9uG2NKJE7nQtvn60KO4iY21z5GkD2RHrsieVLAOVVgAV7YsRo7LkTgmkkkAAk0pDDGn6C96vZK0VjBawkFSTsyLcX2GeOEFZ4JMisEEaWvFbENgbsN7QAAKFQATQGGHEHIpekxqRcEncBiKqYCpiWVMTeI5O6BUABSpGEYhyeVjU7L2mVdCKB6P7Lxj8DAqaYY9IZN9MG4yDIAwxJqYYVq2MtCTwyMrE2IfSSjUkmWk68FsIwZIITL8KaF7CwwMaDA5qI8wSEFkgZMa0wMT3aIjDEhJ2yBjVzgwGzFMSU/R4fIKgGIHgiOdFsdBH0wASIJhy0LNFCx1eIlLCqsCckR7tHLJWHucraEoKe9dan9l4xcjjtqiS3wGTVcWicwgASqAoJZaLgTWB7GF2oZdOiUf4tYowh2EejAYLoFMZGASMO9Os/6/PfzgfNHNtha3t6zAAlb8YGoEjSDnOd3R28F52VOSwy4Z8D7rwkUKCMVEniICaSpqCJBQWUFYOXeKizgkqJBuz84PSvqtRBYczFHbDTYxCQuIRTWFBYT6YLSOgZOHBViEOSNhLfMoj0AyZ7zki817EmGoBGTGYYBgggIETuF6PGpEBNmIf6f6wDgSDrHaRh6RzlTEBy4FX5uvkgRGUQ6Tksks3DvINRURkl6ZZzEjZSPT/9k=;fontSize=200;fontStyle=1;fontFamily=Times New Roman;strokeWidth=20;" vertex="1" parent="1">
          <mxGeometry x="1850" y="-4000" width="793" height="445.19" as="geometry" />
        </mxCell>
        <mxCell id="dmp5WC2TkHpJQWJekFcE-16" value="" style="shape=image;imageAspect=0;aspect=fixed;verticalLabelPosition=bottom;verticalAlign=top;image=data:image/jpeg,/9j/4AAQSkZJRgABAQAAAQABAAD/2wBDAAMCAgMCAgMDAwMEAwMEBQgFBQQEBQoHBwYIDAoMDAsKCwsNDhIQDQ4RDgsLEBYQERMUFRUVDA8XGBYUGBIUFRT/2wBDAQMEBAUEBQkFBQkUDQsNFBQUFBQUFBQUFBQUFBQUFBQUFBQUFBQUFBQUFBQUFBQUFBQUFBQUFBQUFBQUFBQUFBT/wgARCADIAMgDASIAAhEBAxEB/8QAHQABAAIDAQEBAQAAAAAAAAAAAAcIBQYJBAMCAf/EABQBAQAAAAAAAAAAAAAAAAAAAAD/2gAMAwEAAhADEAAAAbUgAAAAfH7QkaNabTtXJZAAAAAAAAAABhY3w09H9gyc/Ifr0wdOIAAAAAAAAA0bw03Ld5ijMzlu4+kGkxOMkc+NrL+NM3MAAAAAAA/lV/zpRqduJM+h9EReYmZDf4JkhvKSkc6LJTpRMv8AK9WFAAAAAEaSXQkwvQeNpNMLEv8AY7JMhSBhKu219F7sRSq3hYb4wzPhzdvrGUXlygAAAAYbn/cGCi5sPzBDJ4qPTbCQkH69CCoUP9I8ccvP3IGCLlZqJN/Jf5wdJqEl8vpp+4AAAAEJRtuMYl04bmSGSq8czdCJaG2fO/oQegxpknOvAHTOG48kEmakF36Blt5FiOXAAAB4vbBRja09FqnFuIgk/wBhCNHbt6CVi3zQxYuItRD6fy3xt+b02ezzc3ugcCmyT3i4vJmAABrGo6xPgBCUx1kjsuZEU3+ghWFZ98ZWzbJp/IxG2ygeDzfqh5aeX4Bn4QrNXzPDkoHngAavtArRtc2CE02CEoGvMOd1u8nVgvU5vb6XkUvwxeaGKiSWR5JdoNyITTYITTYKv2OyQAANXwhIbUttBpBu7Qd+Mfo8kaearmfv+jbvV/P6GlbkfsBjtJJHYLOgCPZCgAqRvOSvWc8OhWC2IguostYY0Syka4ovnzo6L86D3YPdNULCWYrfZA5fdLuaPSwyvn++CKKtCsuQN0J543ZJTA1cKA4YNj6MBTf0BldFC9PPMLHxoGStsHMrHhL1yg5126Cstwgk8H//xAArEAACAgICAAQFBQEBAAAAAAAFBgMEAgcAARAVFjARFBcgNhITMTVANyb/2gAIAQEAAQUC9uabCvENc7+LJ/nfbsxe4SV6d9b18bmtUf8AKZKwgxmvRU2UfHevIuF61iO5X/yH++3Zt666x65aqxXqyNalAFP8bkx9LINTH1kwFC9ArN7kWwF6WV4pdFKAEzCwCf8ACzvotW6ane60EqK2bY81HVxkcb4Y1Ie6s2RRpYmStgWVHtdbhjRD738cfNqd45LCSTcJ17WwYB19mWPWeLHqsQa6NLpdIIoWz8DGXu7UfO+std69yY84K8dWGSTGLC5sep3Y6neCPPK3bnd91F8GbEHW7P8APCA6sVqPSPMo3NYPnZmL239o9LgUpYlbztavHUgOHKi8PrhCb7mWfV9LiIbkN2cutos3WQ3c5avkPZlvYdeSMprfKhfrlKZUXXNDzA24lsSsfjZQntbQPdmmjXK50urksuEEQOrk+GtjbIksS/Zjl3hlrjYnZXv9PeuWLm3VvomD00e7qF/ZNX+hQhNGeoGvmxbUtitsQ1gnqnguIpZn6y0iQ/bYFImsScwzyjzD2Ytjomvi8hVdngwswdfuqjThn1Jh7G0rPy6TpWr1Iwcw68y2pt4j3cbuISz00MEMMdaLhAfXK0zqQUFFvTBjmna5EZdXevLtg82tV6rOidZ+bVfY3B+HaO+HzfF7/ouxPj605o79HzH3R/8AWebk/LtefhfsbjMRQhdL2/2WTmPflu1NvDu6bbxEZvSzBBPHah4RI1xNI86Eixf1EV5pyS+RurnfmOwObSt9W3XWBmIkr/fduRDqi2DkboFIj2vtXNi1JYamwQ2Dkp+C67lljmW7SfcZ9qJs0vI48pZBVeLW6Jr8PIJXbNjCpXixlaWZii9EM+OXWeP3Oc2bQdggwrQs+r75RwH1s6dCSPGaMLZyQTWxtbSRS/Zjj3JlrnXnk/MMu9isXGUTIdB6915eBsxUZCZHa+JzVvuZTsS2G1+ClHjvA9tcUHv1bUV2uaC1D4+AuTQMiiOvPEJDTJmvl1qpl7yG6WKT5UV5a1zXz7KbHyo0YBtQsVrBB6pssczS+D+PmHzDiEJWh9ln/wB06+O00LuTvX2wc1iWrahvV88OpMb2uKOVjqk7jufPvHfOxbmT4K14Mo2OFCtULSdnWw4XtZIfYKDwkjxmjU5MlFk8WbMjgFWoG5YGedu3PO3bnnbtzzt24dQGC/bWnEonWV3ZIc/j9mWXWGLJtQSFxLnSzsTWkpiX73nbtzzt25527c87duMlNwY+hstieh7LMii2nE9qcyJ7pMZxczrbhPwdfWsx8LW3mGx1YKG2iYBqAoR7XVIarw/4rg+qQwsa5XLXfWq1n41tfr1TuvVhpx+4UZxQSb6hLvBjYIMWPC+7Axlqs+gLc/habwtGx66X+YvADLL+fDN1BR54Z9SYeBAjWFVfqKucEnKB2LxeWjtTBfC+zFvpazcXVMvcZIscsItlvWa1AGAkWe4eVia1nq18lJ98fPzEfrk8UpHlMotc06y27+HCf9kM/reWJ8Ktd3dbDdeq64YLlBeYLqmVBGIT4nw3V+LajsxV3DlMyOtlObq/KEzY3o8Y17Q9UhdT/m3Hz8xFbUMBxzM4kWzPTi/jVocJ/wBkMy68t+PXD/8ARD7PVK/9csuMprphN6w/BfBkXqrOLYVq8sEvnrvxUqJa4fj/AFdR7mryys+v9dUGQM6ayGAl3VVWaJ049VJ829U14Cvrmz0eiDj0rhPCS4SpWOyPydnmqq08bme6+IMSIkuFPo0B45LfQNi1nhlGkc//xAAUEQEAAAAAAAAAAAAAAAAAAABw/9oACAEDAQE/ASn/xAAUEQEAAAAAAAAAAAAAAAAAAABw/9oACAECAQE/ASn/xABUEAABAwEDBQcNDAgEBwEAAAACAQMEAAUREhMhMUFhEBQiUbHR8AYVIzJCQ1JxgZGhwdIgMDM1NkBTYnOUsuEkNHJ0gpKTokRjo/EWJVRVg7PC4v/aAAgBAQAGPwL3s3XCQGwTERLqShtuSJN9T89zebaloBB7UuX+7i+cROpeCVz0zhyTTvbXTpnorGQMnHRvA39RU0LT1lT81p2aWRcRe6HUXT1/NpE6QtzTI4vHxJUm37QT/mFpLjz9w33KdNm5E6qYgKqN3MzWx7ttdfTZTb7JI404KGJJrT5qzYbeezLPXLTVTQRag6beKrkzIm47HeBHGXRUCFdaVL6lphqqs3uw3C7tpdXTbxfNHZA8KSfY2A8I10UK2jKaZmSFy0lx9xEvJdWfipqIzaLb0h0sIC2JLevjuu3Ca66NAYrhVHEUM/lSmLcsd5t6fZq5UDZLFjDuhzdNNR5zHaOjeo+CutPmSg85l5eqM1nLy8VMyV/RRj/Ag2Xabb+OsqxDkysXfj0L/EtQZ8re7LbDiGQZS8vQl24+8ykeSJmpIjbly+m6so6xKs8076l4p/MlONK0kqG6WIm77lFeNKxQn+yJ2zB5jHyfMHLPsRzRwXJicgc9K4HY49/DlvaL/WtCWQ37JTv0hL/MmhPcqJIhCulFonIwdbpXhMpwF8Y81ATmJkkW9qUyvBXxLTdn2qotTVzNvaBd5l9+csSz3LtUl0fwJ66SdORQs0FzDoV5eagZZAWmgS4QFLkRKUzJAAc6kS3IlFFsiK/bclNUYeAnjKrwjWbZQcTxKZ+i9Kv68wF+rkM3JV79nQLVbTTvVxQL081b0mg7Y836GaOHzLuORZbIvsGlygVIbak7Z7q9id1ivgrtpLLnuXzm07E4XfR5098Nxtf0x7sbCbfC8lI0alvceySHdd3OtNsMgjbTaYRAdCJTkyY5gaHQmsl4koZdtqcGye2Zs1tblNOM16eSt4wWhedDvEW5BFfrF/vS72CPDDVcONfTzVf1y/0W/ZpEmR2Jga7kwFzeit5yGxy6/wCHkpcX8K81ZRsnLV6ne6bLO7GTZspqVFdR5hxLxMaehygxsupcvPStY1B+OaG06ndJqKo84MxElzgeCetPe3mxK+PD7AHj7pfPyUzjG6VJ7M9x7E8ieujccJAAExES6kpbdmivWqMShAjloL/MXpyU7ZdlO4GB4L0gFznsTZ7lCFbiTOipQ2RaxIb6phaePvn1S28tBhzdTtpHdh1Rnebpq3EtFof0iFnXa3r82nz09Zhl2KUOME+un5cnvUyYveGic8yVBYd4Ym7lHb9aJwl3INhxiwyLUeyaqmptO2Xptpmz4PYnXhyDV2kQROEvTj3ccVlAj/TvLhD8/JV42jGVzwVErvPSJOj4QLtXgzgXl3BMFUSFb0VNVG1Iu3wQ5JxfBdTQXItNhI/XIZLFev03j+V1OMuJibcFRJONFrXjgyvPhL10Jit4kl6L7zOu0uYA/uSpj696j3J41VObccUu1s6CiDsIvyKjYv4EVoW0TavCXl3G47l+9W0yr13gpq8tA00CNtglwiKXIibjsWU2jrDiXEK1JiswZUpkC4DzbJEhDq0V8Uzvu581WhGlQpMdl1tHEJ5ohTEi3a/H6K6ooSfByAblim3uvSu5LVMyOiDn9t3qqynVzqsYEXyJd7yX24eurW48DfKu51U36cEe7xYKtW/6T1JuWvf8Jhbu8XCv9Xu3bv8AtfC/qJuB+7BylVlX/R+tfeW7MRMcmQWUuTuQHX021JYXv0dbvGip+e4aL2loweDtIfyGifu4EpoTv2pwV5NxuS5fvZxMk9d4K6/JQPMmLjRpiExW9FTcdlSnUZYbS8iWpMpqZJjNOFwGgdVEEdVfGcz+uXPVoSpMuQ+y22jaI64pJiVb/V6a6o5qfBxxbiCu3uvSm5Ouzo0gN/2pf6aYjomB+F2F1vkXy+8PSXywMtCpkWyrYtyeOFy0WzjxQLvTWjp+dQX3eAjT2B2/Ui8EtyFbcUcUiy3sqqcba9snTbTNoQeyusjl2rtJAqcJOnFu4Yj97GnIOpiD8vJVyQIiH4XCu819IU6Srgj2rQ5gHybggAqRktyCmtaJx+7fAjlXE8J1dA8ieSm1kfrkslkvX6cRfldTr7i4W2xUyXiRKRO+TpOfZiKotvMDhs6VdHmgOgeIunFtpCFcQrnRU93F6l4pKjWZ+eY9yCaB6bKbaaFAbAUERTUlSDhCDcKR2YnjXMCr2yeO/lqOw46r5tNoCuql2K5NNE2YoQElyiutKWxZhL1olEpwZBaAXW2vTlp21bJaxtFwnowJnFfCHZ7lBFFIlzIia6S17WFAkImJpk+9J4RbeSgNEX/h6zTvRV0SXebpr3JcBqRvYnhw5S6+npNotigxg7CYreJkua9PJf56kQpCYmXhwrz1K6nZ6/p1nLcCr3xrUvTjT3Uic7nwJwA8ItSU5aE7hWnaJZd5V0omod0YrQnNITwvG32rfH41pt9g0dZcTEJjoVKchzG8o0fnFeNNtJFtcXLQsZMzVoNpeTacRpSzoTotOn/iIqpcq/WH/ZaXer0eWGrhYC8y89XbwFNuXDnpFmSmIofUvMunlrfchwcvqfkLea/spzUg4HLJ6nNalmdk8ydM9NRozaMsNpcIDqp6ZLPJstJeu3YlDGIVhTS7Vo86H4l3YnVNAG+VAW54U74zr6baYlxyxsvDjFfcjG7ax7HXE5xOvcXTiXj9w5bVnt3rpktD+NPXSRJeJ2zDXytLxps2UD8dwXmTS8TBb0WlEkQhXMqLSyrLkP2JKXuohXCv8NXNT7OtQE/6htQL0Vd1rsxF8LKrdy1dJtaFZja6UhtYi9PPW+pSu2rN+nmlj9G45LmPCywGlV5KREQmoLa9hY9a7a65TgunujwAXvQ867pAYoQElyiutKk9TT5LvR6+RAMuLWPTi2+4kJZTOWnGmBvhIOG/us/FSQ4/U/HPhKZuHIHEarrXhV8nYv3gfar5OxfvA+1Xydi/eB9qvk7F+8D7VPTG7CCGhcImWHhVL9iX+iiBpVVnF2SI9ov9S0IK9vKUveZC3eZdC+5UiVBFNKrRNxS65SvBaXgJ4y5qDK45DpLc1GaTgj4kpJnWFmY6PweWfC4F47sWmvk7F+8D7VfJ2L94H2q+TsX7wPtV8nYv3gfaqIRWGzGkxXMq0+1IHEP91MHLZ3vJUeyNXouEtej3pSkNZKVqktZi8vHRHGFLSY42e3/l5r6yTMyTEUe8noT+Fa4e9ZG1xrmVK/U4N/7J+1XAcjxvsmvavrJuPS7QNe9DeSfypQnPIbOY4l4Ti+SsMJi5xe2fPOZeX5nglRmpI8ToIVXlZbafZkQci1+oL/Xc564FlML9pefLWBhkGQ8FscKe+o1OnNR3VTFgJc91fGrPprIQ57T711+BFz7pxpNotNvh2wZ1u81Ay1abKuGuEUW9L13TYftKO08C3EBHnSvjaL/PSIlrRb1/zN1RK1YqEi3KmUpCFbxVL0XdOTLeFhgdJnXxq1/KXNROQJQSQFbiwavcLLBvKvGeSaRdCEqKt6+au+TZ0gvKq18Xf67ftUkJkHIcqMd7jq5sjt6aaASNXCRLlNe620MGHmnvhiyn0Y6L/HRtQmSku9uZKuZPGq02NoR1ZynakioQr5UobGnKrj4j2F7wkTUu5a3260zLjQxNh0cQFlQS9PPTS2hGyIu34VQkJF81SLLkFlWo4IbRrpFL7sO5L+1LlqJ9kPJuOPOLc22KmS7ErW1AbXsLP/0u2hltwFyRDjFFNEJU8VJJj3iQrhdZLQacS1GtBhFFt5L7i0pnuVPPuxf3wfwHQZUxDKMkA4tZZs25Lhx32zms3ZYB0/nuRv3QfxnTkRLOGSpuq4rmVwakS7RspyAVlixiISRzLYsNy/s1F/Yc/Cu5a3261HhMNxFaZHAONtb+WmVmkCA12jbQ3Cm2nrV3wLhyEyeSDuERde3cl/aly1Ez96HkrTVo/uzn4VqNIJtHUacFxW17q5b7q+Jk+8//AJqTaCR0i5a5cmi33Zrqsz/yf+wt04Uq/CvCA00gWpaKLIBb0ztujoNONK/WJF/7a1H614wloWLK6hTWpbKHGqEd2dUS5L6jKDRmm9BziN/dHTsm0N9NPC+raIBYc1w8abakTISynJAKOESJCTOSJxVFI2jFMDmdR+qu5aqiy4qK+udBWrPkS7OxSXGkI1Vw0z+eociy2DbyhKBtDeaeOrRExcBtWhXCSKiX37krsDnwpdwvHXwDv8q1GU2nBHA5nIfq1aKJnXe7n4VqGw6y6jTrwASoOpVr4SZ/UT2alQobb7kdvDhIkvXOKLVmiQqJdkzL9oW5/8QAKRABAAECBAUFAAMBAAAAAAAAAREAITFBUWEQcYGRoSAwscHwQNHx4f/aAAgBAQABPyH20NrRgIlWkbDY1AMrs36P5DiXGTrLPOPEUFgK4S+Rjfe+tMlekuVt6xE7D/GS2BRm8jdYOtS8IQ6N2SHkaeC2mzYoOYsf81g2TGQkf4qmJH7mYdajIAIAwOGESCZCEpFS5sk9Rj/EiiFW8uiZxj03pYXmjfXK+TnLnRbAFFMofJwAirAoMNyKgMDgQukr2vHJnTX5oXwV5Mn8JocEwepwPO+g0c+c6VM9qXtgVNQ3oPxfmlgYqnDIk8uFgnjVVco80YTEHZlh70bsrsuq4XIkS8GFRCJT3vzG5J76glsFCwLrjz/HbWjnVd4rNGf6UqKq6SRfyZ70EEFj0HzCBSJQOGuXh2fCiHna5fC7N6gQljTo/wCLth71mgv9+d+Za1ot+wYg5HN6GcFxBEiyCg9RZA1WrXP1XacNwTerqBcCvwyKgsdq+S+s0DWD/cqHMFbCvZ7xNCARkc6iYCW3M0dyr/ZLuPpOfer2a1XLJ18xfJ9wy0V0iL9C/ONakWm+zcJ1Ld3Kh59MgWAVgFqF8uea0wXslyzHfemp3Z7H2ITri1rlIpvNtaYgtmKmewpu+TQChyxBdT+07UIHW+3ZZ+PLFy0F8T6dqOfG+ZoNEbjUMxnxckueZzKj/iplf7Gye3fDABtF/qchRlDhEsU/Zm0YIVGACVaihie6Nx5nc6nbKb0c3y1ufLH0JAZIQjrWgPM38B+WMQbI03OEaP47qkQ3kLtg6qLj5KcDnzPs9qESzDmoh3p5VMV13LziOvBhQWPRn4ulMCep2Z1YQnWXG5+4xhtn0Gg2iYB4PqmqOhnTatmHgaFj8KMEpUJmNkX8GKVPTBuxC/iZosbi4AhO1PFqNy/Q+aj5QTMfZQqhhec3gaNqZdq7dl34YxCDVzPe7VciyEQSeJ04A/JLZKHkQ5TRkKRYsAOH3ld2aOjUJibJrqREw33ngkw6zKWgjFP0VhV7JC6r24C9YzoXlUjSUmqK+PZlYwu0UPZfnlw/bEH/ACtyx7WuGVur3esdh/h04MYMSagpnJ+zR6Jz14vm26aKNRBzRb44MKIlavDvd6t3C8kEHi9eBSQwbmQsNwPR1o/K5UWCPD6407NVyKkWFP1YQMTATvPB9frK9qILiFWNPYouOnl4CDhF5fINQYtMxI+B5H2DrtlkCa2MrkEJ1i+y0l6iLVpOQvbg2gYukPEdKZeMf5QwDGseIV/sr42MeoVaqeKX4b0oapJ0gz3b8AzKNlTACrplyNP0PIak/kPeIdy5vNSU3PISvYpzDe9Qew+KlChO6H08qn5CISJr65ZJVZB5jZ5u+g6ufARAFPoYimVGLAsGi9TLWUHBI3p7TjZEsjQtzT3Tc5XfvYxBTvhBnqMuWHoe+MHKtAqDlVwi8HL5YJuRcsc9z8dlbaDzJFEnBiHnTJSF7r0GYDZU1M9c0G4wnKvqnXNyk6eohvs0cf53xNT+Qj3V9qJmN4y4ikDaAmILhaFt6C7FSVYNAnzRbKNkKfU09y7bf5OBfx0qdkTr1KRNzCc7FJIBrhrmI+eDsUEBksztDw6J1aDMpNs9A/4/CLPPLD9nRtZUzWQZq2CnpQi/7Hsx1473EGMDyl6JyqLOuwcncwfTbn1rNwRHoFjsx93Y/M9aXuRwXd/s6i+Ns6LgoL4wciaJWPapnNYI2EKyEELPxPNYRqjwr61WOUXPD0oDxjZgdlbvLvWFFCTduQM10K34wRcLeL8YGakrdD3f9OhbXi05RsiWRqT00ma8utnqvQUTGmmmSCzzFAr/AOgohB09GzZslpgEKdR83t9HSrLBCJrWx3jrNHotEk39mDtQySXPQfMJVAFGPGxdfZ8ulFLlC7mX3t9Wk/F0bYB5MPTs2bNgFcy2aXwMD0Kju/augUiae00CKIuzoPPpFBTNwoBu70Zjmu/F+KGChzQtRw24qMiYzFTuoSaknYlg7U3YXYwbCx1elRyAjvfo2IP4eyhe+Smi9/wCoUpzRolF00/LaOG+Bewe7GN26ogr8/8AWrn9FwgxgceLu1iJHowb0GlYUpgSgcbZ8WF0eBZUogkFCARkcE4JPUgSJlQTigYI58YCezIDSo6BIc3K73G/oiWt4iAA/FCkEntf4QB0A0rb1gxMnrLmPEeF6NM8AFRdBa+1ThXfLOsGqRjSJ0qGAUGbiov5omIJjRxJEnamNXXuivvhg553x4FCApnSDKgbVDsGJKYxqbkZfmA00w0iv09dft6eFtdYTAS+CrZnV3/VeMNVXM5I3GzfKlAuSSRc/wBDTsrg7okcgno3gqsnRJIG7Dw/6YJDowdMOLjHLcpcEJ4bs6nMLwqBsQxJMc/RaKRE6JiaoaNFLcI43KrYzp0x1Wbw861tOfD9PXWEHP20NgHh2VI8MBCTnEcNZkFaPQUzBMxOGdeLxYvhMhIg93otSEhEulb6ypeH4O9Zg3cmeHkZzF5oEmBfjMheKHcQkCaoriSGLDC5qj2XpiQsFwWgE+8g4SjWRIak0QZu4DFCnmFaEgmUqfcsAGPnfgxjjfNTtw2JcrwDFSGFCAzoT/hgQosxo8LxszvKlLgGK0bpEhhOD//aAAwDAQACAAMAAAAQ888884g88888888888o80888888888sUow8888888848Y00o888888840s8YMw88888Y4UoI4gY08888U4c8400s8888osQ08s004o888c8w8QYQ88o88ssM88U400MMs88w840sgc48w884UMkEos0UwIk8gcA8Agc8gAcA8//EABQRAQAAAAAAAAAAAAAAAAAAAHD/2gAIAQMBAT8QKf/EABQRAQAAAAAAAAAAAAAAAAAAAHD/2gAIAQIBAT8QKf/EACkQAQACAgEEAQQCAwEBAAAAAAERIQAxQRBRYXGBIDCRoUDwsdHxweH/2gAIAQEAAT8Q+3N0r4stwAKvjHn3oFHjJOk5GAiCMj/HsNlBxw0zsKSHhyOZGAZD3CJ3IO2NIvLNIl1sWmQ0/jR1yNDRl8sfIyvi+MzjLsBF2ja6CUEWyGnOweR6WOPCWTwvCI/xWMh3R3pvciZ8hwB7B4AoA4OhngFtyPYt47RxIWGHTKwJhhr+IIY6ugndBlnJDYy3P9XoiUOiyiw4c6C1Sw9oPPQHCClgGhI3MZui5TUCBgmVkBkTgFEh/KH5IEpP4Vh4RDJTJwG0hnAO56vVlaVTTIVBEqB/wQvdUbhHbIBJRQfZOlKhNswSch4XvI80PQ9nfiWMUUpAUdCFA2tsVDWQC7yOwJ+CZr77hAEqsAYsgSctpGq0/wCnK58plGTPu1BieQYjzAie65t0gjuwCAAgAoPofYomtsRpPGFTVH/NiPmXlXWIKqMi5KGDcUNkMsaDFDWh6fgIWiUL7qayW0l2DR3n+JVcQAVd3ZBA2spMsFLu+IgBQGINCABJUUAcuPg6FH1KIMQcL/Jj3Wj49meffT9IZctlHPKBgvhHG1RE1ruwxaL+A4ZAEgZEy91ZC7JsGxBEERxchIHIllABaAikICVwNBu3dIldlKVH7btoBC6y5PUkXFpiAkbC++C3dksh8PoGAOwGBwoWKDclJg0AqgKAvLLzSVFiEKtI2xK/ljRTQisQJdMA2iwcXlLeh6yWNss28RgtXSQR4cMTryqGWtbuwiSgwQ/Sap7aLtXBHkZaTHZIjYIigREQTGaPTS7TwhwEMG8cqKSagEWAjTDhMz3Z0e5E7LUc/bd7eMfpEs5c4xPQEkqXkkBOGc5KhpI0k6AFXxjAChqszS6C6DWUb/RQaP0Mg25B+nNztMMyBLEbkxULoZIoZqWTJ4Orm4nMoyyaCeKM69AAJVqcG70CdB34xYoANIDiKfeP7UqzjJ86QD5wOFmhQD8X7dO2qniqRcQz7xYyQTCBQEvyN3R1OTRbkDCOFyxgCQpjuwlh9oJ+cuPrMZuB1AWOAmI6IxIIqlBYiCJjFEKVQMNS1nGpOJGUDmnyCqk8jO5+N5HeFJ84KRESUxj8D8mSwaQghE9ifZX2XnZ5+S/OGznBP/RoPy6eTXoDrwUPoZK6EDQPuMj17dCVEoUQCmmVliRZgF9uCIAoAIg6N7cbIjpNgwhYgiJj93igCdVAANAcdAlpLqBACXMFph4FaIIAHeW9OgtxsFSq/Kva4ttB9qB8q37P/Nr/APUYJsTX0Jf89EAvKPZjANrXn+tEdPnjvTvE/wCP134J8yj9dAxGBj3m/wAJgTyR6r/UfZnP9SKiAdiE1CYKe1K6TPzfx08DZwHHyRHoYQWAxYfuAr179IlEjQY7xhZaAYMgwARIFInRFxEYg4DaIAtUC3H+4B8Eb2RBaXPSM4Oz+AgiBJ2HnnkljiAB8ufToBEZnlg+B/GRP8kR5MbYSb4PH2OS6dtKDlqA2qBvEZ2dRC7hRABPGecbSBaAeTjvjebwrouSjiFexWBLCvIARC/MHcPVkdmUatZBHlkcziRRhKZ70vxh5RSj2prUq6FT0dR1l4AFqqAHfAfcSFEEmxXnHcYbzDaFCOUABxgCLVYVd6RzQevuMz6Y+DF8ZdSQBjsFmNhM4PNU5YkCUiMz9Y3PsMlHiSJ5esRVjALDcAAfGCwYMpYTeDCIkG8jSIzYcxhhKS24WpfAxAdiKJ5xZQSL8jXAV2ipZnd6CdZOxlG3KCoykMO/oOg1S6wAtVYAx20igSCs0WQtJXOdKUBpgPJ5myPHoWkdpqIilMMgt4Na4gGS2BlCFYyKKMAtuRoyuEOLz8okkS/aETsXY/VwRdBrhzolNBcZo0iZVgdhKkPEeqWiGCao5mhREWsgZz6BIP8AYw3BSQBjV7jD5REUS/hnx4IlQQDvhVwmCSyZffXnkbYTlrQJ4EfhZdCY/wDDN/WOayThHJA+eXrFGLoHWNbZfBsMRvCRHsliSu/KVWBb2ixP2qqqlVVVVxxoKjrdsTkL85Tc+3paQGBMS7Unq6oanmJF3Gd44DhDOTuCw4SQ4ROPp4zt9zUXhKQyQOh9D650tELJtjQ7efJIJArax2psvOwZHTcgvyJ+I4RG8Si0S8QopE4cQIUrlOpz/RrOByKjiQyeVvvI3E0p7QyH0gA/YCK84T5qMybmthsQHGAAAAFAZKQUu+IrjQAri+1Asu0qAoCQtk4CF6Yy2JwXtwFPUSjWBiA7EUTziqCxEZ5bhoq3w+iFMAAVhLJEJV0RMMdEpbWgSQB4PMv0ZcuVIiw7HLtysaxmY5Wk6EhhPIl0DEVTiKGQgCMPHgJOysDOiV7cAkEJE0/Q+xRMbarQHfBRSifJuR4lqHlihQsnZCbguZBoKHiQ23ohIqGXIJhPoy5cuWAFu74UzCijv5pkR7AgICgIqFpJhk+0acVBwUogqioUtsZXb2ckyT4WHjpiQvZFOG/FH2Ui/rExB3EPx/vi3Gnxwwh1wuJnYPxDFnMIdmKt1JJ3YtOdw8KMiQMfJE/wwo6QEvoYMtp9XnoM/GSN46v1P95ZtggfwdzREwr6EPuyyBJXJBAoKMLuGNOf8HEe3bBGAlC0JqXQ9Q6YmMEyCIJJMnOFBYBIiBisBLt6rL+GB2HDn/KYkGAgJWCVo9uG2NKJE7nQtvn60KO4iY21z5GkD2RHrsieVLAOVVgAV7YsRo7LkTgmkkkAAk0pDDGn6C96vZK0VjBawkFSTsyLcX2GeOEFZ4JMisEEaWvFbENgbsN7QAAKFQATQGGHEHIpekxqRcEncBiKqYCpiWVMTeI5O6BUABSpGEYhyeVjU7L2mVdCKB6P7Lxj8DAqaYY9IZN9MG4yDIAwxJqYYVq2MtCTwyMrE2IfSSjUkmWk68FsIwZIITL8KaF7CwwMaDA5qI8wSEFkgZMa0wMT3aIjDEhJ2yBjVzgwGzFMSU/R4fIKgGIHgiOdFsdBH0wASIJhy0LNFCx1eIlLCqsCckR7tHLJWHucraEoKe9dan9l4xcjjtqiS3wGTVcWicwgASqAoJZaLgTWB7GF2oZdOiUf4tYowh2EejAYLoFMZGASMO9Os/6/PfzgfNHNtha3t6zAAlb8YGoEjSDnOd3R28F52VOSwy4Z8D7rwkUKCMVEniICaSpqCJBQWUFYOXeKizgkqJBuz84PSvqtRBYczFHbDTYxCQuIRTWFBYT6YLSOgZOHBViEOSNhLfMoj0AyZ7zki817EmGoBGTGYYBgggIETuF6PGpEBNmIf6f6wDgSDrHaRh6RzlTEBy4FX5uvkgRGUQ6Tksks3DvINRURkl6ZZzEjZSPT/9k=;fontSize=200;fontStyle=1;fontFamily=Times New Roman;strokeWidth=20;" vertex="1" parent="1">
          <mxGeometry x="1110" y="-3985" width="380" height="380" as="geometry" />
        </mxCell>
        <mxCell id="dmp5WC2TkHpJQWJekFcE-17" value="" style="endArrow=classic;html=1;rounded=0;fontFamily=Times New Roman;fontSize=200;fontColor=default;fontStyle=1;entryX=0;entryY=0.5;entryDx=0;entryDy=0;exitX=0.75;exitY=0;exitDx=0;exitDy=0;strokeWidth=20;" edge="1" parent="1" source="dmp5WC2TkHpJQWJekFcE-13" target="dmp5WC2TkHpJQWJekFcE-7">
          <mxGeometry width="50" height="50" relative="1" as="geometry">
            <mxPoint x="5813" y="-4824" as="sourcePoint" />
            <mxPoint x="3963" y="-5349" as="targetPoint" />
            <Array as="points">
              <mxPoint x="2503" y="-5218" />
            </Array>
          </mxGeometry>
        </mxCell>
        <mxCell id="dmp5WC2TkHpJQWJekFcE-18" value="&lt;i&gt;Navigation data&lt;/i&gt;" style="text;html=1;align=center;verticalAlign=middle;whiteSpace=wrap;rounded=0;fontFamily=Times New Roman;fontSize=200;fontColor=default;fontStyle=1;" vertex="1" parent="1">
          <mxGeometry x="3390" y="-5540" width="2550" height="90" as="geometry" />
        </mxCell>
        <mxCell id="dmp5WC2TkHpJQWJekFcE-19" value="&lt;i&gt;SS Image h x w x c&lt;/i&gt;&lt;i&gt;&lt;/i&gt;" style="text;html=1;align=center;verticalAlign=middle;whiteSpace=wrap;rounded=0;fontFamily=Times New Roman;fontSize=200;fontColor=default;fontStyle=1;" vertex="1" parent="1">
          <mxGeometry x="3264" y="-6580" width="2032" height="150" as="geometry" />
        </mxCell>
        <mxCell id="dmp5WC2TkHpJQWJekFcE-20" value="&lt;i&gt;&lt;font&gt;Action values&lt;/font&gt;&lt;/i&gt;" style="text;html=1;align=center;verticalAlign=middle;whiteSpace=wrap;rounded=0;fontFamily=Times New Roman;fontSize=200;fontColor=default;fontStyle=1;" vertex="1" parent="1">
          <mxGeometry x="2960" y="-4140" width="1447" height="30" as="geometry" />
        </mxCell>
        <mxCell id="dmp5WC2TkHpJQWJekFcE-21" value="&lt;font&gt;&lt;i&gt;Mean&lt;/i&gt;&lt;/font&gt;" style="text;html=1;align=center;verticalAlign=middle;whiteSpace=wrap;rounded=0;fontFamily=Times New Roman;fontSize=200;fontColor=default;fontStyle=1;" vertex="1" parent="1">
          <mxGeometry x="6374.5" y="-4190" width="274" height="190" as="geometry" />
        </mxCell>
        <mxCell id="dmp5WC2TkHpJQWJekFcE-22" value="&lt;font&gt;Image Obs 95d&lt;br&gt;&lt;/font&gt;" style="text;html=1;align=center;verticalAlign=middle;whiteSpace=wrap;rounded=0;fontFamily=Times New Roman;fontSize=200;fontColor=default;fontStyle=3;" vertex="1" parent="1">
          <mxGeometry x="7640" y="-5710" width="1513" height="110" as="geometry" />
        </mxCell>
        <mxCell id="dmp5WC2TkHpJQWJekFcE-23" value="&lt;font&gt;100 d&lt;/font&gt;" style="text;html=1;align=center;verticalAlign=middle;whiteSpace=wrap;rounded=0;fontFamily=Times New Roman;fontSize=200;fontColor=default;fontStyle=3;" vertex="1" parent="1">
          <mxGeometry x="7600" y="-4640" width="710" height="270" as="geometry" />
        </mxCell>
        <mxCell id="dmp5WC2TkHpJQWJekFcE-25" value="" style="endArrow=classic;html=1;rounded=0;fontFamily=Times New Roman;fontSize=200;fontColor=default;fontStyle=1;entryX=0.25;entryY=0;entryDx=0;entryDy=0;strokeWidth=20;dashed=1;" edge="1" parent="1" target="dmp5WC2TkHpJQWJekFcE-9">
          <mxGeometry width="50" height="50" relative="1" as="geometry">
            <mxPoint x="2780" y="-4460" as="sourcePoint" />
            <mxPoint x="7326.5" y="-4468" as="targetPoint" />
            <Array as="points">
              <mxPoint x="2780" y="-4780" />
              <mxPoint x="5990" y="-4810" />
              <mxPoint x="7327" y="-4780" />
            </Array>
          </mxGeometry>
        </mxCell>
        <mxCell id="dmp5WC2TkHpJQWJekFcE-26" value="&lt;font&gt;&lt;i&gt;Reward&lt;/i&gt;&lt;/font&gt;" style="text;html=1;align=center;verticalAlign=middle;whiteSpace=wrap;rounded=0;fontFamily=Times New Roman;fontSize=200;fontColor=default;fontStyle=1;" vertex="1" parent="1">
          <mxGeometry x="4610" y="-5020" width="60" height="30" as="geometry" />
        </mxCell>
        <mxCell id="dmp5WC2TkHpJQWJekFcE-27" style="edgeStyle=orthogonalEdgeStyle;rounded=0;orthogonalLoop=1;jettySize=auto;html=1;exitX=0.75;exitY=0;exitDx=0;exitDy=0;fontFamily=Times New Roman;fontSize=60;fontColor=default;fontStyle=1;" edge="1" parent="1" source="dmp5WC2TkHpJQWJekFcE-14" target="dmp5WC2TkHpJQWJekFcE-14">
          <mxGeometry relative="1" as="geometry" />
        </mxCell>
      </root>
    </mxGraphModel>
  </diagram>
</mxfile>
